<?xml version="1.0" standalone="no"?>
<!DOCTYPE svg PUBLIC "-//W3C//DTD SVG 20010904//EN"
 "http://www.w3.org/TR/2001/REC-SVG-20010904/DTD/svg10.dtd">
<svg version="1.0" xmlns="http://www.w3.org/2000/svg"
 width="3456.000000pt" height="4608.000000pt" viewBox="0 0 3456.000000 4608.000000"
 preserveAspectRatio="xMidYMid meet">

<g transform="translate(0.000000,4608.000000) scale(0.100000,-0.100000)"
fill="#000000" stroke="none">
<path d="M11080 36433 c-8 -3 -23 -12 -32 -21 -10 -8 -25 -12 -34 -8 -10 4
-20 2 -24 -3 -3 -6 -33 -13 -65 -17 -33 -4 -72 -15 -87 -26 -14 -10 -40 -21
-57 -24 -17 -4 -31 -10 -31 -15 0 -5 -7 -9 -16 -9 -8 0 -40 -11 -71 -25 -46
-21 -54 -29 -50 -46 5 -18 2 -20 -17 -15 -33 8 -126 -21 -126 -40 0 -8 -4 -13
-9 -9 -5 3 -22 -6 -36 -20 -15 -13 -36 -27 -48 -31 -11 -3 -43 -21 -71 -39
-28 -17 -57 -30 -63 -28 -8 3 -13 -5 -13 -21 0 -24 -17 -33 -53 -27 -4 1 -19
-12 -33 -29 -14 -16 -33 -30 -43 -30 -19 0 -81 -53 -81 -69 0 -6 -7 -11 -15
-11 -9 0 -12 -6 -8 -16 5 -13 2 -15 -15 -10 -15 5 -25 1 -34 -13 -7 -12 -18
-21 -25 -21 -7 0 -13 -5 -13 -11 0 -5 -13 -15 -29 -20 -16 -6 -31 -19 -34 -30
-3 -12 -11 -17 -20 -13 -19 7 -97 -64 -97 -88 0 -10 -4 -19 -10 -19 -36 -5
-60 -20 -60 -40 0 -12 -7 -19 -18 -19 -10 0 -24 -9 -32 -20 -8 -11 -20 -20
-27 -20 -7 0 -13 -5 -13 -11 0 -18 -69 -79 -89 -79 -11 0 -26 -6 -33 -12 -7
-7 -30 -26 -51 -41 -21 -16 -36 -34 -34 -40 4 -13 -21 -34 -66 -57 -15 -7 -26
-18 -24 -24 4 -13 -17 -36 -34 -36 -13 0 -59 -50 -59 -65 -1 -20 -39 -55 -59
-55 -16 0 -23 -8 -27 -30 -4 -19 -13 -30 -24 -30 -19 0 -50 -30 -50 -48 0 -7
-11 -12 -25 -12 -14 0 -30 -9 -37 -20 -7 -11 -18 -20 -24 -20 -7 0 -19 -11
-28 -25 -9 -14 -23 -25 -31 -25 -8 0 -15 -7 -15 -15 0 -9 -7 -18 -15 -21 -8
-4 -15 -12 -15 -20 0 -8 -7 -14 -15 -14 -8 0 -15 -4 -15 -10 0 -5 -18 -28 -40
-52 -22 -24 -40 -48 -40 -54 0 -6 -11 -17 -25 -24 -14 -7 -44 -37 -66 -67 -23
-29 -45 -53 -49 -53 -4 0 -19 -18 -34 -40 -16 -24 -34 -40 -46 -40 -11 0 -25
-9 -32 -20 -7 -11 -18 -20 -25 -20 -7 0 -13 -4 -13 -10 0 -5 -7 -10 -15 -10
-18 0 -20 -16 -2 -23 9 -4 9 -6 -1 -6 -26 -2 -42 -28 -36 -60 6 -26 3 -31 -13
-31 -11 0 -29 -9 -41 -20 -12 -12 -22 -16 -22 -10 0 5 -4 10 -10 10 -5 0 -10
-7 -10 -16 0 -10 -6 -14 -15 -10 -10 3 -17 -3 -21 -19 -3 -14 -10 -25 -15 -25
-5 0 -9 -9 -9 -21 0 -11 -13 -31 -29 -45 -16 -13 -32 -35 -35 -49 -4 -14 -12
-25 -19 -25 -6 0 -23 -20 -36 -44 -13 -25 -38 -55 -57 -68 -19 -13 -34 -26
-34 -30 0 -4 -13 -23 -30 -41 -16 -19 -30 -40 -30 -46 0 -6 -4 -11 -9 -11 -11
0 -41 -56 -41 -77 0 -7 -7 -13 -16 -13 -20 0 -36 -19 -70 -83 -13 -26 -31 -50
-39 -54 -8 -3 -13 -9 -10 -13 2 -4 -7 -16 -21 -26 -29 -21 -85 -78 -97 -100
-4 -8 -17 -14 -27 -14 -15 0 -20 -7 -20 -28 0 -18 -9 -37 -25 -50 -14 -12 -25
-27 -25 -32 0 -17 -43 -70 -56 -70 -19 0 -54 -41 -54 -62 0 -10 -10 -22 -22
-27 -15 -5 -22 -18 -25 -47 -2 -21 -10 -44 -18 -50 -8 -6 -15 -16 -15 -23 0
-6 -5 -11 -11 -11 -6 0 -9 -9 -6 -20 3 -13 -1 -21 -14 -25 -10 -4 -19 -11 -19
-17 0 -6 -8 -17 -17 -24 -15 -11 -15 -15 -4 -23 9 -6 10 -11 2 -15 -6 -4 -11
-14 -11 -22 0 -21 -27 -48 -32 -33 -2 7 -15 2 -30 -13 -19 -17 -25 -31 -21
-46 6 -23 -16 -52 -40 -52 -8 0 -18 -11 -21 -25 -4 -14 -11 -25 -16 -25 -6 0
-10 -8 -10 -18 0 -11 -9 -27 -20 -37 -11 -10 -20 -26 -20 -37 0 -10 -4 -18
-10 -18 -5 0 -10 -9 -10 -20 0 -11 -10 -25 -22 -31 -25 -11 -51 -56 -42 -71 4
-5 -2 -15 -12 -23 -11 -7 -39 -53 -64 -101 -25 -49 -51 -93 -57 -97 -7 -4 -13
-17 -13 -27 0 -11 -4 -20 -9 -20 -11 0 -61 -76 -61 -93 0 -8 -14 -33 -30 -55
-17 -23 -30 -46 -30 -51 0 -5 -6 -11 -14 -14 -7 -3 -23 -26 -35 -51 -12 -24
-25 -46 -29 -48 -11 -5 -42 -65 -42 -81 0 -8 -7 -17 -15 -21 -8 -3 -15 -14
-15 -25 0 -11 -9 -26 -21 -34 -11 -8 -21 -25 -22 -38 -1 -13 -18 -41 -39 -64
-21 -22 -38 -48 -38 -57 0 -10 -3 -18 -8 -18 -7 0 -11 -9 -51 -103 -12 -27
-28 -55 -36 -63 -8 -9 -15 -24 -15 -34 0 -10 -4 -21 -9 -24 -5 -3 -12 -18 -15
-32 -7 -26 -28 -54 -42 -54 -14 0 -33 -36 -34 -62 0 -15 -11 -38 -25 -52 -14
-14 -25 -34 -25 -45 0 -11 -4 -22 -9 -26 -5 -3 -9 -18 -9 -33 0 -32 -46 -117
-68 -126 -8 -3 -20 -19 -25 -36 -6 -16 -15 -30 -20 -30 -5 0 -9 -13 -9 -30 0
-16 -4 -30 -10 -30 -5 0 -10 -7 -10 -15 0 -8 -4 -15 -9 -15 -5 0 -7 -9 -4 -20
3 -11 0 -20 -6 -20 -6 0 -11 -9 -11 -19 0 -11 -7 -26 -15 -35 -8 -8 -15 -23
-15 -34 0 -11 -7 -22 -15 -26 -8 -3 -15 -12 -15 -19 0 -8 -13 -39 -30 -70 -16
-31 -30 -66 -30 -77 0 -11 -7 -23 -15 -27 -9 -3 -15 -13 -14 -22 3 -31 -1 -41
-16 -41 -9 0 -15 -6 -14 -12 3 -17 -25 -76 -51 -109 -12 -14 -24 -45 -27 -68
-3 -24 -12 -45 -19 -48 -8 -3 -14 -14 -14 -24 0 -10 -4 -19 -10 -19 -5 0 -10
-11 -10 -24 0 -13 -7 -29 -15 -36 -9 -7 -14 -19 -11 -26 3 -8 -4 -20 -14 -27
-20 -14 -50 -84 -43 -102 2 -6 -6 -20 -16 -32 -11 -12 -23 -32 -26 -45 -4 -14
-17 -36 -31 -51 -13 -14 -24 -36 -24 -47 0 -12 -21 -42 -49 -69 -42 -41 -48
-51 -43 -79 3 -21 -2 -41 -14 -60 -33 -48 -44 -74 -50 -114 -4 -21 -10 -41
-14 -43 -5 -3 -16 -30 -25 -60 -10 -30 -22 -55 -28 -55 -5 0 -7 -9 -4 -20 3
-11 2 -20 -2 -20 -7 0 -41 -74 -41 -90 0 -6 -4 -10 -8 -10 -5 0 -13 -21 -18
-47 -7 -37 -13 -48 -26 -47 -18 2 -22 -6 -19 -38 3 -25 -17 -58 -34 -58 -11 0
-15 -12 -15 -44 0 -25 -5 -48 -11 -51 -11 -8 -33 -53 -34 -73 0 -7 -6 -17 -14
-21 -7 -5 -15 -26 -17 -47 -1 -22 -26 -83 -53 -138 -28 -54 -48 -102 -46 -107
7 -10 -16 -62 -32 -72 -6 -4 -15 -28 -19 -53 -3 -25 -13 -48 -20 -51 -8 -3
-14 -13 -14 -22 0 -9 -6 -25 -13 -36 -7 -11 -22 -56 -33 -100 -10 -44 -29 -95
-41 -114 -13 -19 -23 -45 -23 -58 0 -13 -7 -26 -15 -29 -8 -4 -15 -11 -15 -18
-1 -6 -14 -22 -30 -35 -24 -20 -27 -29 -23 -57 4 -22 2 -34 -6 -34 -6 0 -11
-13 -11 -30 0 -19 -7 -34 -20 -42 -12 -8 -20 -24 -20 -40 0 -14 -5 -28 -11
-30 -13 -4 -34 -61 -49 -132 -6 -28 -22 -65 -36 -83 -15 -21 -27 -50 -29 -74
-1 -23 -8 -46 -14 -52 -6 -6 -11 -15 -11 -20 0 -9 -24 -67 -41 -99 -5 -10 -9
-26 -9 -37 0 -10 -7 -24 -15 -31 -8 -7 -15 -23 -15 -36 0 -12 -4 -25 -9 -29
-5 -3 -12 -19 -16 -35 -4 -17 -11 -30 -16 -30 -5 0 -9 -12 -9 -28 0 -18 -7
-30 -22 -37 -31 -14 -58 -65 -62 -119 -2 -26 -7 -50 -10 -53 -3 -4 -6 -19 -6
-35 0 -15 -4 -28 -10 -28 -12 0 -60 -101 -60 -127 0 -11 -7 -26 -15 -33 -39
-33 -59 -73 -64 -132 -1 -5 -9 -8 -19 -8 -17 0 -56 -52 -47 -62 9 -9 -75 -79
-109 -92 -37 -13 -116 62 -116 111 0 10 -4 23 -9 28 -18 18 -25 118 -24 310 2
234 14 358 49 480 9 33 16 74 15 91 0 18 6 37 14 44 8 7 15 29 15 49 0 25 8
45 22 61 14 15 21 34 20 50 -2 14 5 43 14 65 10 22 19 58 21 80 2 22 7 49 12
60 16 36 30 79 36 115 4 19 18 59 31 88 13 29 24 58 24 65 0 7 7 21 15 31 8
11 15 37 15 57 0 21 5 41 10 44 6 3 10 19 10 35 0 16 5 32 10 35 6 4 8 10 5
15 -3 5 1 22 9 37 8 16 17 50 21 77 4 27 18 75 31 106 21 52 23 100 4 100 -15
0 -17 36 -3 48 17 16 11 67 -8 67 -8 0 -20 4 -26 8 -16 10 -92 -32 -107 -58
-6 -11 -17 -25 -23 -33 -7 -7 -13 -26 -13 -42 0 -16 -5 -32 -11 -35 -6 -4 -8
-13 -5 -21 7 -19 -11 -64 -36 -91 -14 -15 -19 -29 -14 -47 3 -14 1 -28 -5 -32
-7 -4 -9 -22 -6 -45 3 -27 1 -39 -7 -39 -34 0 -47 -26 -51 -101 -1 -42 -8 -85
-13 -95 -15 -28 -36 -133 -29 -141 4 -3 -1 -15 -10 -25 -19 -22 -24 -37 -24
-90 0 -21 -4 -38 -8 -38 -5 0 -11 -19 -15 -42 -4 -24 -13 -52 -21 -64 -7 -12
-17 -39 -20 -60 -8 -46 -27 -94 -37 -94 -12 0 -31 -42 -35 -75 -6 -55 -77
-225 -94 -225 -5 0 -9 -11 -9 -24 0 -13 -8 -39 -17 -58 -9 -18 -22 -45 -30
-60 -7 -14 -13 -33 -13 -42 0 -18 -18 -52 -38 -74 -7 -8 -11 -21 -8 -28 3 -8
0 -14 -7 -14 -7 0 -21 -16 -31 -35 -11 -19 -22 -35 -26 -35 -4 0 -15 -27 -26
-59 -12 -40 -25 -62 -37 -65 -16 -4 -18 -11 -12 -45 5 -33 3 -42 -9 -47 -9 -3
-23 -23 -32 -43 -29 -68 -47 -101 -55 -101 -21 0 -38 -32 -32 -61 5 -24 0 -36
-23 -60 -15 -16 -33 -29 -40 -29 -6 0 -15 -11 -18 -25 -4 -14 -11 -25 -16 -25
-6 0 -10 -8 -10 -17 0 -10 -22 -41 -48 -68 -54 -58 -64 -72 -95 -137 -12 -27
-28 -48 -34 -48 -7 0 -20 -11 -29 -25 -9 -14 -22 -25 -29 -25 -7 0 -15 -9 -18
-20 -3 -11 -12 -20 -19 -20 -8 0 -20 -11 -26 -25 -9 -19 -19 -25 -42 -25 -20
0 -30 -5 -30 -15 0 -8 -7 -15 -15 -15 -9 0 -18 -7 -21 -15 -4 -9 -19 -15 -40
-15 -20 0 -37 -6 -42 -17 -15 -26 -79 -26 -121 0 -49 29 -69 55 -76 97 -4 19
-11 45 -18 58 -8 16 -8 39 1 85 6 34 11 97 9 140 -1 52 2 77 9 77 6 0 14 18
18 40 3 22 11 40 16 40 6 0 10 21 9 48 -1 27 1 54 5 60 12 20 19 55 21 117 1
34 11 82 23 110 31 76 45 131 40 159 -3 15 0 27 8 30 8 3 14 14 14 25 0 11 5
23 11 26 6 4 8 13 5 20 -3 8 2 19 10 25 8 7 14 23 14 36 0 12 5 26 10 29 6 3
10 23 10 43 0 20 7 60 16 87 8 28 17 70 19 95 2 25 11 61 19 80 8 19 14 39 14
43 0 5 11 21 24 35 14 15 33 56 43 92 10 36 29 98 41 138 13 40 24 86 24 103
0 32 25 89 39 89 10 0 25 66 22 98 -1 12 4 25 13 28 9 3 16 11 16 18 0 6 11
33 25 60 14 28 30 67 36 88 5 22 16 38 24 38 8 0 15 8 15 18 0 10 16 31 35 46
19 16 35 34 35 42 0 19 36 54 55 54 8 0 23 -9 32 -20 25 -29 48 -25 81 16 25
30 30 45 29 81 -1 24 3 47 9 51 6 4 11 21 11 37 0 17 6 45 14 64 11 27 11 35
2 38 -7 3 -13 13 -13 22 0 43 -105 85 -135 55 -7 -8 -21 -14 -29 -14 -9 0 -21
-9 -28 -20 -7 -11 -18 -20 -25 -20 -7 0 -13 -3 -13 -7 0 -5 -16 -25 -35 -46
-19 -21 -33 -42 -30 -47 3 -5 -4 -14 -15 -20 -11 -6 -20 -17 -20 -25 0 -8 -9
-19 -21 -26 -16 -8 -20 -17 -16 -39 5 -21 0 -33 -19 -50 -13 -13 -24 -29 -24
-37 0 -7 -4 -13 -10 -13 -5 0 -10 -5 -10 -11 0 -10 -31 -79 -49 -109 -27 -44
-107 -298 -117 -368 -4 -29 -11 -55 -15 -58 -5 -3 -9 -14 -9 -24 0 -10 -6 -25
-12 -32 -7 -7 -14 -27 -14 -44 -1 -17 -13 -56 -28 -87 -14 -31 -26 -66 -26
-79 0 -13 -7 -36 -15 -51 -8 -16 -14 -43 -14 -60 1 -31 -16 -86 -36 -117 -12
-19 -14 -31 -20 -110 -4 -66 -24 -140 -37 -140 -5 0 -8 -11 -8 -25 0 -14 -7
-28 -16 -32 -12 -4 -14 -14 -10 -39 4 -18 2 -35 -4 -39 -5 -3 -10 -23 -10 -43
0 -20 -7 -50 -15 -66 -8 -15 -15 -54 -15 -85 0 -34 -6 -65 -15 -78 -9 -12 -20
-48 -26 -80 -6 -32 -19 -83 -30 -115 -11 -31 -19 -60 -17 -65 1 -4 -2 -50 -6
-102 -6 -69 -15 -107 -32 -140 -15 -26 -22 -52 -18 -61 4 -8 9 -40 10 -70 8
-156 22 -216 60 -254 13 -13 14 -19 4 -32 -23 -27 2 -59 57 -74 26 -8 53 -19
58 -26 12 -14 198 -46 220 -38 8 3 15 12 15 20 0 8 5 14 11 14 5 0 29 20 51
45 23 25 49 45 60 45 10 0 18 5 18 12 0 6 41 51 90 99 50 48 90 95 90 102 0 8
6 17 14 20 8 3 22 21 30 39 9 18 34 57 56 86 22 29 40 60 40 68 0 9 14 36 30
61 17 24 30 50 30 58 0 8 11 17 25 21 14 3 25 14 25 23 1 14 62 116 90 148 5
7 10 17 10 23 0 5 5 10 10 10 6 0 10 14 10 30 0 17 4 30 9 30 12 0 41 57 41
80 0 9 9 25 19 34 11 10 25 32 32 49 7 18 28 56 46 86 19 29 32 60 28 68 -3
10 8 28 30 49 20 19 33 38 30 44 -3 5 3 10 14 10 17 0 21 6 21 31 0 34 15 69
30 69 15 0 12 -26 -5 -40 -9 -7 -15 -27 -15 -44 0 -17 -1 -119 -1 -226 -2
-222 1 -270 13 -286 5 -7 11 -23 13 -35 3 -13 12 -29 21 -36 14 -10 15 -15 4
-28 -10 -12 -9 -16 4 -21 9 -3 16 -11 16 -18 0 -20 91 -85 129 -91 20 -4 46
-10 59 -16 34 -14 89 -11 95 5 3 7 22 17 42 20 21 4 49 19 64 33 14 13 42 36
62 49 20 14 41 36 47 49 7 14 16 25 22 25 5 0 10 6 10 14 0 7 6 19 14 25 8 7
14 20 14 29 -2 31 46 117 86 154 33 31 40 44 38 71 -2 21 5 43 18 59 11 15 20
40 20 57 0 17 4 39 10 49 32 57 58 129 59 164 1 10 16 34 35 54 28 30 34 45
40 100 4 41 17 84 36 120 16 32 27 61 24 65 -2 4 10 35 26 68 17 34 34 73 36
88 3 15 8 31 12 37 3 6 7 18 9 26 1 8 7 16 12 18 6 2 11 10 11 17 0 7 7 26 15
41 8 16 15 38 15 49 0 11 13 47 30 80 16 33 30 65 30 71 0 12 43 117 60 146 6
10 10 24 10 32 0 7 6 19 14 25 7 6 16 26 20 44 3 17 12 46 20 62 23 49 56 140
56 152 0 18 48 121 60 128 6 4 8 11 4 16 -8 13 15 69 36 90 8 9 22 36 29 60 7
24 24 65 36 90 13 26 26 65 30 87 3 22 13 43 21 46 8 3 14 14 14 25 0 11 9 35
20 53 11 18 20 43 20 54 0 12 7 27 15 34 8 7 12 17 9 22 -4 6 -3 13 2 17 12 8
40 67 54 113 6 21 17 41 24 45 7 5 16 19 19 33 12 54 55 155 76 176 11 12 24
37 27 55 4 19 12 41 19 49 6 8 19 33 29 55 66 151 79 178 105 208 7 9 10 21 6
26 -3 6 6 28 20 48 14 21 25 48 25 60 0 12 8 28 18 35 11 7 22 30 26 50 4 21
20 62 35 92 16 29 34 69 40 89 7 19 21 45 31 58 11 12 20 35 20 51 0 15 4 28
10 28 5 0 13 12 16 28 4 15 13 32 20 37 6 6 21 35 32 65 29 79 61 140 72 140
6 0 10 15 10 33 0 21 8 41 20 52 12 10 18 25 16 32 -3 7 -1 13 4 13 9 0 50 80
50 99 0 5 11 23 25 39 14 17 28 44 31 61 4 17 10 31 15 31 5 0 9 7 9 15 0 8 8
29 18 47 10 18 17 38 15 44 -2 6 8 16 22 22 14 6 25 20 25 31 0 10 6 24 14 31
8 6 12 18 9 26 -3 7 2 16 10 20 9 3 19 20 23 37 3 17 26 70 50 117 24 48 44
91 44 96 0 6 11 21 25 34 15 14 25 35 25 50 0 15 9 35 20 45 11 10 20 23 20
28 0 6 11 25 25 43 14 18 25 37 25 42 0 5 16 41 35 78 19 38 35 74 35 80 0 7
9 14 20 17 11 3 20 13 20 22 0 16 46 106 60 115 3 3 22 36 40 74 19 37 40 70
47 73 7 3 13 14 13 24 0 10 9 24 20 31 11 7 20 22 20 34 0 12 9 33 20 47 11
14 20 30 20 36 0 6 4 11 9 11 5 0 23 29 39 63 17 35 38 70 47 77 8 7 15 18 15
25 0 7 18 32 40 55 42 45 51 83 28 120 -17 27 0 54 34 55 17 0 38 14 62 39 38
42 43 55 26 72 -15 15 -2 41 24 48 12 3 28 17 34 31 6 14 16 25 22 25 5 0 10
8 10 18 0 9 14 28 30 42 17 14 30 31 30 39 0 8 15 27 33 42 25 22 29 30 20 40
-10 10 -6 18 19 41 23 21 32 38 33 60 0 25 6 35 30 48 17 8 32 18 33 23 2 4
10 7 17 7 8 0 17 15 20 33 6 29 19 48 90 130 8 9 15 28 15 42 0 14 4 25 8 25
5 0 14 23 21 50 12 45 16 50 41 50 20 0 35 10 56 38 15 20 45 54 66 75 21 21
38 41 38 44 0 3 16 23 35 46 19 22 35 47 35 54 0 8 11 25 25 39 33 32 185 222
185 230 0 4 12 19 28 35 36 36 68 82 64 93 -1 4 1 13 6 20 5 6 12 24 16 39 4
15 10 25 15 22 5 -2 11 2 15 10 3 8 13 15 23 15 41 1 123 99 123 147 0 30 2
33 23 28 19 -5 37 8 97 68 41 40 88 88 103 105 16 18 35 32 42 32 23 0 22 22
-2 46 -32 32 -29 42 20 64 24 11 49 31 57 45 7 14 19 25 27 25 7 0 13 4 13 9
0 4 11 6 25 3 37 -7 78 37 69 72 -10 40 18 76 60 76 52 0 65 9 72 47 8 40 89
133 117 133 9 0 17 4 17 9 0 5 12 11 28 13 22 2 27 8 27 31 -1 15 5 27 12 27
7 0 13 7 13 15 0 8 9 23 20 32 11 10 20 23 20 29 0 6 20 14 45 17 28 4 56 16
73 32 15 14 32 25 38 25 6 0 9 12 6 30 -5 37 20 70 53 70 30 0 82 27 99 52 8
11 19 17 25 14 5 -4 21 9 36 28 18 24 31 32 45 29 14 -4 20 0 20 10 0 9 6 20
13 24 6 4 17 17 23 28 6 11 20 22 30 23 23 5 64 41 64 57 0 17 63 85 78 85 7
0 12 4 12 9 0 6 12 16 28 24 15 7 26 19 24 26 -2 9 3 11 13 8 9 -4 15 -1 15 8
0 8 15 21 34 29 49 20 77 51 63 66 -9 10 -8 12 6 6 14 -4 20 0 24 14 4 14 14
19 37 19 38 0 63 5 72 14 4 4 15 7 25 7 9 0 19 7 23 15 3 8 14 15 25 15 11 0
22 4 25 9 3 5 15 7 25 4 15 -4 20 1 23 19 2 19 8 22 31 20 15 -2 27 1 27 7 0
6 8 11 19 11 10 0 30 11 44 24 30 28 87 49 109 41 10 -4 20 5 32 29 12 26 21
33 36 29 12 -3 22 1 26 11 3 9 12 16 19 16 7 0 15 6 18 14 4 10 20 13 57 11
38 -3 52 0 57 10 3 8 8 13 12 11 3 -2 44 2 91 10 66 11 86 11 92 1 6 -9 12 -9
29 1 11 7 22 12 23 10 2 -2 15 -20 31 -42 41 -54 42 -142 4 -218 -5 -10 -9
-23 -9 -31 0 -7 -9 -29 -20 -50 -11 -20 -20 -48 -20 -61 0 -37 -18 -76 -34
-76 -9 0 -20 -17 -26 -42 -18 -68 -33 -108 -42 -108 -4 0 -8 -9 -8 -19 0 -10
-7 -21 -15 -25 -8 -3 -15 -13 -15 -23 0 -10 -14 -36 -30 -57 -17 -22 -30 -45
-30 -51 0 -7 -14 -29 -30 -50 -18 -22 -28 -45 -25 -55 3 -11 -7 -29 -30 -51
-20 -19 -45 -54 -57 -79 -11 -25 -27 -53 -36 -63 -9 -10 -23 -39 -32 -65 -9
-26 -23 -48 -31 -48 -8 -1 -22 -2 -31 -3 -14 -1 -16 -6 -8 -25 7 -20 5 -25
-11 -29 -11 -3 -25 -19 -32 -36 -6 -17 -17 -31 -24 -31 -7 0 -13 -7 -13 -16 0
-28 -63 -113 -92 -123 -21 -7 -28 -17 -28 -35 0 -16 -6 -26 -15 -26 -8 0 -22
-12 -32 -27 -9 -16 -30 -43 -45 -61 -15 -18 -28 -38 -28 -45 0 -7 -9 -19 -20
-27 -11 -8 -20 -20 -20 -26 0 -7 -16 -21 -35 -33 -19 -11 -35 -27 -35 -36 0
-8 -5 -15 -10 -15 -6 0 -15 -11 -20 -25 -5 -14 -18 -29 -27 -32 -29 -11 -92
-83 -98 -114 -5 -22 -12 -29 -30 -29 -14 0 -26 -7 -30 -19 -3 -10 -19 -31 -35
-47 -16 -16 -30 -34 -30 -39 0 -6 -9 -16 -20 -23 -11 -7 -20 -18 -20 -25 0 -6
-13 -21 -29 -31 -15 -11 -34 -34 -40 -53 -7 -18 -18 -33 -24 -33 -23 -1 -70
-52 -83 -90 -3 -8 -27 -31 -54 -50 -26 -19 -50 -43 -53 -52 -3 -10 -12 -18
-21 -18 -9 0 -16 -8 -16 -19 0 -10 -10 -25 -23 -34 -13 -8 -34 -36 -48 -61
-13 -25 -28 -46 -32 -46 -12 0 -32 -23 -33 -37 -2 -28 -5 -31 -24 -26 -14 4
-20 0 -20 -11 0 -9 -7 -16 -16 -16 -9 0 -18 -9 -21 -20 -3 -11 -9 -20 -14 -20
-5 0 -9 -4 -9 -10 0 -12 -37 -50 -49 -50 -4 0 -21 -18 -36 -40 -15 -22 -31
-37 -36 -34 -5 3 -9 0 -9 -5 0 -6 -6 -11 -12 -11 -16 0 -58 -60 -58 -82 0 -9
-13 -21 -30 -28 -18 -8 -30 -20 -30 -31 0 -11 -6 -19 -13 -19 -22 0 -67 -44
-68 -65 0 -11 -22 -38 -50 -60 -27 -22 -57 -49 -67 -59 -9 -10 -25 -27 -35
-38 -10 -10 -15 -23 -12 -28 4 -6 1 -10 -6 -10 -13 0 -49 -38 -49 -52 0 -4 -5
-8 -10 -8 -13 0 -90 -77 -90 -90 0 -11 -74 -90 -84 -90 -11 0 -66 -60 -66 -71
0 -5 -4 -9 -10 -9 -5 0 -10 -9 -10 -20 0 -12 -7 -20 -16 -20 -9 0 -14 -6 -11
-12 3 -8 -6 -14 -24 -15 -33 -2 -78 -32 -79 -50 0 -7 -5 -13 -11 -13 -6 0 -9
-7 -5 -15 4 -11 -1 -15 -17 -15 -16 0 -27 -11 -41 -40 -11 -22 -26 -40 -35
-40 -9 0 -22 -9 -29 -20 -7 -11 -17 -20 -23 -20 -13 0 -79 -67 -79 -80 0 -5
-14 -17 -31 -26 -34 -17 -132 -114 -124 -122 2 -3 -18 -15 -45 -28 -31 -14
-54 -33 -65 -53 -10 -20 -30 -37 -55 -47 -22 -9 -40 -20 -40 -25 0 -4 -11 -20
-25 -35 -14 -15 -25 -35 -25 -45 0 -11 -5 -19 -10 -19 -6 0 -28 -18 -49 -40
-25 -25 -44 -38 -54 -34 -9 3 -20 -2 -26 -13 -14 -26 -89 -103 -134 -137 -22
-17 -36 -35 -33 -43 3 -7 1 -13 -5 -13 -5 0 -20 -10 -32 -23 -12 -13 -30 -26
-39 -30 -10 -3 -18 -13 -18 -20 0 -8 -16 -28 -35 -46 -29 -26 -36 -29 -41 -16
-9 23 -20 18 -35 -17 -15 -38 -46 -67 -71 -68 -10 0 -31 -13 -48 -30 -17 -16
-48 -39 -69 -50 -21 -10 -41 -25 -44 -33 -3 -8 -22 -22 -43 -32 -33 -15 -36
-19 -20 -25 17 -6 17 -7 4 -13 -10 -3 -19 0 -22 10 -10 24 -34 -2 -42 -44 -6
-29 -14 -39 -45 -52 -21 -9 -39 -22 -39 -28 0 -7 -7 -13 -15 -13 -8 0 -15 -4
-15 -9 0 -5 -3 -16 -6 -25 -4 -11 0 -16 12 -16 15 0 16 -2 5 -9 -11 -7 -10
-11 7 -20 25 -13 62 -14 62 -2 0 5 10 11 23 13 12 2 26 13 32 26 8 19 33 35
57 37 4 0 22 16 40 35 41 44 109 100 120 100 4 0 8 9 8 19 0 14 13 24 51 36
32 11 57 27 67 44 9 14 24 26 32 26 8 0 19 10 25 23 5 12 15 22 21 22 6 0 20
10 31 23 11 12 37 36 58 52 20 17 41 40 45 51 6 14 21 24 44 28 21 4 36 13 36
21 0 7 9 16 19 20 10 3 22 17 25 30 4 14 13 25 20 25 8 0 28 16 45 35 17 19
35 35 40 35 15 0 58 46 66 69 3 11 16 21 28 23 12 2 26 13 32 25 17 33 94 113
109 113 8 0 26 17 42 38 40 52 50 62 67 62 9 0 28 20 43 44 16 25 36 47 46 49
10 3 18 12 18 20 0 9 15 25 33 36 18 11 39 32 47 46 7 14 19 25 26 25 7 0 28
15 47 33 18 17 42 37 53 43 10 6 33 34 49 62 18 30 37 52 47 52 10 0 32 17 50
37 60 67 142 143 154 143 7 0 16 10 19 23 9 27 54 66 77 67 10 0 21 14 28 34
6 19 19 36 30 39 12 3 20 14 20 27 0 15 10 25 34 35 25 11 38 24 46 50 6 19
16 33 21 29 11 -6 61 31 53 39 -9 9 33 50 44 43 6 -3 13 5 16 19 4 14 21 35
39 47 18 11 46 38 62 59 15 21 31 36 35 34 5 -3 20 12 35 31 33 43 115 124
125 124 5 0 18 19 30 42 12 23 31 50 41 59 10 9 19 22 19 28 0 6 11 16 25 21
13 5 36 27 50 50 14 22 31 39 37 37 7 -1 14 7 16 18 2 11 13 30 25 42 11 13
17 26 14 30 -13 13 16 33 48 33 27 0 32 3 28 18 -3 12 4 23 21 32 16 8 26 22
26 36 0 13 8 25 18 28 30 10 81 66 75 82 -3 9 2 14 16 14 12 0 21 6 21 15 0 9
11 20 25 25 14 5 25 16 25 24 0 8 43 57 95 110 52 53 95 101 95 106 0 13 62
75 75 75 5 0 11 12 13 28 2 15 14 34 27 43 14 9 21 22 18 30 -3 9 5 18 22 24
30 12 95 72 95 89 0 6 20 25 44 43 24 18 49 46 57 63 7 16 30 48 50 70 69 74
109 122 109 130 0 4 11 18 24 30 13 12 27 31 30 42 4 12 16 23 26 26 14 3 20
14 20 31 0 19 7 29 25 36 14 5 39 31 55 57 16 27 37 57 45 68 9 11 19 32 22
48 4 18 12 27 24 27 11 0 19 6 19 14 0 8 4 16 9 18 9 3 53 75 76 124 8 17 21
34 30 37 8 4 15 15 15 25 0 10 14 34 30 52 17 18 30 41 30 49 1 9 14 32 30 51
17 19 30 39 30 46 0 6 6 17 14 23 8 7 14 20 14 29 -1 9 6 34 16 55 10 20 16
46 13 58 -4 16 -3 18 9 8 21 -17 37 1 52 58 17 62 42 124 58 143 19 23 44 101
44 138 0 17 4 32 9 32 17 0 23 35 27 155 5 141 -7 176 -70 212 -32 17 -51 21
-98 17 -42 -3 -65 0 -81 11 -23 16 -24 16 -47 8z m20 -37 c0 -2 -7 -7 -16 -10
-8 -3 -12 -2 -9 4 6 10 25 14 25 6z"/>
<path d="M17016 33053 c-4 -5 -90 -8 -190 -9 -108 -1 -196 -6 -217 -13 -20 -6
-69 -12 -110 -14 -41 -1 -78 -7 -84 -13 -9 -10 -131 -28 -162 -24 -57 8 -134
-2 -228 -28 -60 -17 -129 -31 -153 -32 -23 0 -57 -6 -75 -13 -19 -8 -71 -13
-129 -13 -61 1 -98 -3 -98 -9 0 -16 -54 -45 -82 -45 -14 0 -28 -3 -31 -6 -4
-4 -21 -8 -39 -10 -76 -6 -139 -17 -144 -25 -3 -5 -21 -9 -41 -9 -24 0 -42 -7
-57 -23 -13 -14 -35 -24 -57 -25 -20 -1 -61 -9 -90 -18 -30 -8 -78 -18 -108
-21 -33 -3 -68 -15 -89 -29 -19 -13 -40 -24 -46 -25 -46 -3 -94 -20 -126 -45
-8 -6 -50 -17 -92 -24 -43 -7 -78 -16 -78 -20 0 -12 -58 -30 -74 -24 -8 3 -17
1 -21 -5 -3 -6 -14 -11 -23 -11 -9 0 -29 -6 -44 -14 -15 -8 -36 -12 -46 -9
-13 3 -24 -4 -36 -21 -10 -16 -26 -26 -41 -26 -14 0 -25 -5 -25 -11 0 -7 -11
-9 -27 -6 -18 3 -34 0 -45 -10 -9 -8 -37 -17 -61 -18 -31 -2 -58 -13 -87 -34
-33 -24 -46 -28 -65 -21 -18 7 -24 5 -28 -9 -3 -12 -17 -20 -38 -24 -60 -9
-109 -25 -136 -43 -15 -9 -39 -18 -53 -19 -14 -1 -40 -10 -57 -19 -18 -9 -41
-16 -52 -16 -11 0 -23 -4 -26 -10 -3 -5 -16 -10 -28 -10 -12 0 -39 -11 -59
-25 -20 -14 -45 -25 -54 -25 -9 0 -32 -10 -51 -21 -22 -14 -51 -22 -79 -22
-29 0 -44 -4 -44 -13 0 -7 -18 -15 -39 -19 -22 -3 -47 -15 -57 -26 -9 -10 -25
-19 -35 -19 -10 0 -38 -11 -61 -24 -24 -13 -59 -27 -78 -31 -19 -4 -38 -12
-41 -17 -3 -5 -20 -10 -37 -10 -20 -1 -32 -7 -35 -19 -3 -11 -19 -20 -43 -25
-21 -4 -60 -20 -85 -36 -25 -15 -53 -28 -61 -28 -8 0 -29 -7 -46 -16 -18 -8
-41 -13 -52 -9 -15 5 -31 -2 -55 -23 -26 -24 -43 -30 -78 -30 -32 0 -55 -8
-89 -31 -25 -17 -52 -31 -59 -31 -7 0 -23 -10 -35 -21 -17 -16 -35 -21 -69
-21 -35 1 -52 -5 -78 -26 -37 -31 -99 -62 -126 -62 -23 0 -79 -28 -88 -44 -10
-16 -62 -28 -120 -28 -27 0 -43 -5 -43 -13 0 -20 -33 -42 -74 -48 -21 -3 -49
-14 -63 -24 -45 -32 -87 -52 -111 -53 -12 0 -25 -7 -28 -15 -4 -8 -17 -15 -30
-15 -13 0 -24 -4 -24 -10 0 -5 -17 -14 -38 -20 -21 -5 -67 -28 -101 -50 -60
-39 -130 -70 -160 -70 -7 0 -26 -11 -43 -25 -16 -14 -40 -25 -54 -25 -14 0
-24 -6 -24 -14 0 -7 -13 -19 -30 -26 -16 -7 -30 -19 -30 -26 0 -8 -9 -14 -20
-14 -11 0 -28 -8 -38 -18 -10 -10 -38 -23 -63 -28 -24 -5 -44 -14 -44 -20 0
-17 -53 -74 -69 -74 -9 0 -16 -7 -16 -15 0 -9 -7 -18 -15 -21 -8 -4 -15 -12
-15 -20 0 -7 -10 -16 -23 -19 -16 -4 -28 -20 -40 -54 -23 -64 -22 -77 8 -107
14 -14 25 -29 25 -33 0 -10 34 -41 46 -41 5 0 26 16 47 35 21 19 42 35 46 35
26 0 120 52 134 74 10 14 26 26 37 26 11 0 20 4 20 8 0 12 50 33 61 26 13 -7
49 5 49 17 0 6 6 16 13 24 16 15 88 55 100 55 5 0 20 9 34 20 16 12 34 18 45
15 10 -4 18 -1 18 5 0 6 19 20 43 30 23 11 62 31 86 45 24 14 52 25 62 25 9 0
19 7 23 15 3 9 18 15 34 15 32 0 82 34 82 55 0 8 18 15 45 20 35 5 45 10 43
23 -2 11 3 16 12 14 40 -10 83 -5 94 10 7 9 25 20 42 24 16 4 35 16 42 26 7
10 24 18 36 18 13 0 37 7 52 15 16 8 41 15 56 15 15 0 33 8 40 18 15 22 62 53
74 51 23 -4 35 3 46 27 10 21 17 25 39 20 18 -3 32 0 40 10 7 9 20 13 29 11
10 -3 25 6 35 19 12 17 28 24 51 24 45 0 104 29 104 52 0 10 5 18 10 18 6 0
43 15 83 33 131 61 145 67 161 67 9 0 16 4 16 10 0 5 12 12 28 16 15 3 59 21
97 39 39 18 84 36 100 39 17 4 37 14 45 21 8 7 31 15 50 18 33 4 78 23 90 38
13 16 93 49 119 49 16 0 33 5 36 10 3 6 17 10 30 10 13 0 27 5 30 10 3 6 14
10 23 10 9 0 42 12 72 27 30 14 64 30 75 34 11 4 51 21 88 38 37 17 78 31 91
31 13 0 31 9 41 20 10 11 26 20 35 20 10 0 23 6 29 14 6 8 33 19 59 26 26 6
51 15 57 19 5 4 44 18 85 32 41 13 77 27 80 30 3 3 23 9 45 13 22 5 43 13 46
18 4 6 22 17 40 24 106 40 126 45 151 42 16 -3 29 1 32 9 3 7 19 13 35 13 17
0 42 11 59 25 20 17 42 25 66 25 20 0 44 4 54 9 27 14 113 40 157 47 22 4 45
11 51 16 7 5 31 12 55 16 33 6 43 12 41 24 -2 13 7 19 35 23 73 11 238 48 248
55 6 4 29 10 51 14 23 3 54 13 70 21 16 8 37 15 46 15 9 0 19 4 22 9 3 4 25 7
48 6 24 -2 48 1 53 5 25 20 145 49 230 55 6 0 15 3 20 6 6 3 37 11 70 18 33 7
87 21 120 32 34 10 61 14 63 8 5 -12 29 -12 34 2 2 5 40 11 86 13 45 2 88 9
96 15 8 7 31 11 53 10 21 -2 49 3 62 10 15 8 40 11 66 8 23 -4 46 -2 52 4 5 5
40 11 76 13 37 2 73 8 81 15 9 7 41 12 78 11 35 0 155 -1 268 0 113 0 237 -4
275 -9 39 -5 84 -9 100 -9 48 0 216 -30 261 -46 23 -8 61 -16 84 -18 24 -1 44
-8 47 -16 3 -7 12 -11 20 -8 8 3 24 -1 36 -9 12 -8 32 -15 44 -15 13 0 23 -4
23 -10 0 -13 37 -50 50 -50 6 0 10 8 10 17 0 9 3 13 7 9 4 -4 8 -15 8 -24 0
-9 9 -18 19 -20 24 -5 52 -37 73 -82 8 -19 22 -39 31 -46 8 -6 17 -20 19 -30
7 -34 2 -136 -7 -153 -5 -9 -12 -46 -16 -81 -5 -44 -17 -80 -37 -115 -17 -27
-34 -69 -38 -93 -5 -24 -18 -56 -29 -72 -11 -15 -20 -35 -20 -43 0 -8 -6 -17
-14 -20 -8 -3 -19 -22 -26 -43 -12 -36 -22 -51 -87 -125 -18 -20 -33 -41 -33
-46 0 -5 -11 -20 -25 -33 -14 -13 -25 -34 -25 -47 0 -16 -8 -27 -24 -32 -21
-8 -110 -117 -143 -175 -7 -11 -23 -30 -36 -41 -13 -11 -32 -32 -42 -47 -9
-16 -24 -28 -31 -28 -8 0 -14 -9 -14 -20 0 -20 -20 -43 -69 -83 -12 -10 -19
-22 -16 -27 3 -6 -1 -10 -10 -10 -9 0 -67 -52 -129 -115 -62 -63 -115 -115
-118 -115 -4 0 -24 -17 -45 -38 -21 -20 -58 -55 -83 -76 -25 -22 -62 -60 -84
-85 -21 -25 -47 -49 -57 -53 -10 -4 -19 -17 -19 -28 0 -13 -7 -20 -18 -20 -19
0 -194 -151 -201 -173 -7 -24 -34 -46 -63 -52 -16 -4 -31 -13 -34 -21 -14 -47
-15 -48 -23 -36 -8 13 -9 12 -82 -51 -14 -12 -28 -30 -32 -40 -3 -9 -17 -21
-31 -27 -13 -5 -28 -16 -33 -24 -4 -8 -26 -21 -47 -28 -28 -9 -44 -23 -55 -45
-9 -18 -23 -33 -31 -33 -20 -1 -45 -21 -53 -42 -3 -10 -13 -18 -21 -18 -8 0
-23 -11 -33 -25 -13 -18 -29 -25 -60 -27 -38 -2 -43 -5 -43 -25 0 -18 -6 -23
-25 -23 -18 0 -28 -7 -35 -26 -6 -14 -14 -23 -19 -20 -18 11 -40 -6 -51 -39
-6 -19 -20 -37 -30 -40 -23 -7 -100 -81 -100 -96 0 -7 -10 -9 -25 -5 -24 6
-65 -21 -65 -43 0 -5 -25 -24 -55 -41 -30 -17 -55 -35 -55 -39 0 -9 -105 -81
-118 -81 -5 0 -23 -17 -42 -37 -18 -21 -38 -38 -44 -39 -31 -1 -56 -17 -56
-35 0 -12 -7 -19 -20 -19 -11 0 -25 -9 -32 -20 -7 -11 -18 -20 -25 -20 -7 0
-20 -11 -28 -24 -9 -13 -27 -26 -40 -29 -22 -4 -24 -2 -18 22 3 14 12 34 20
43 10 11 12 25 7 40 -9 28 -7 34 10 30 14 -2 46 79 46 115 0 11 4 23 10 29 5
5 13 38 16 71 4 38 12 64 20 67 9 4 14 22 14 55 0 57 14 95 47 130 13 13 23
34 23 47 0 12 5 26 10 29 6 3 10 19 10 36 0 22 5 29 19 29 24 0 56 44 66 90 4
19 18 60 30 90 13 30 26 75 29 100 4 25 11 54 16 65 4 11 14 41 20 68 9 32 18
47 29 47 13 0 16 12 16 68 0 43 6 80 18 104 10 21 17 48 15 60 -1 13 7 66 19
118 45 200 55 246 57 265 4 42 40 141 58 161 10 12 23 37 29 57 6 23 23 47 44
63 19 15 35 32 35 38 0 7 20 32 44 57 61 61 77 73 100 80 16 4 20 12 18 35 -2
16 -8 34 -13 40 -5 6 -7 18 -4 26 9 23 -52 38 -128 33 -61 -5 -73 -10 -125
-50 -31 -25 -70 -65 -85 -90 -16 -25 -33 -45 -38 -45 -5 0 -9 -8 -9 -19 0 -10
-7 -24 -15 -31 -8 -7 -15 -20 -15 -29 0 -22 -37 -136 -52 -164 -7 -12 -13 -35
-14 -52 -1 -16 -11 -64 -23 -104 -12 -42 -19 -86 -16 -99 3 -13 2 -29 -3 -35
-6 -7 -12 -30 -15 -52 -7 -58 -30 -145 -39 -145 -5 0 -8 -21 -8 -47 0 -69 -16
-157 -36 -200 -10 -20 -17 -55 -16 -77 1 -23 -2 -50 -7 -61 -25 -58 -31 -79
-31 -106 0 -30 -2 -36 -38 -106 -12 -23 -22 -51 -22 -63 0 -11 -7 -23 -15 -26
-10 -4 -15 -20 -15 -48 0 -45 -13 -66 -41 -66 -39 0 -47 -53 -9 -63 22 -6 16
-49 -13 -89 -14 -18 -18 -35 -14 -56 3 -17 0 -40 -9 -56 -8 -16 -14 -42 -14
-58 0 -43 -21 -109 -37 -115 -7 -3 -13 -14 -13 -24 0 -11 -6 -22 -14 -25 -8
-3 -17 -28 -20 -57 -4 -28 -13 -65 -21 -82 -19 -41 -35 -104 -35 -137 0 -17
-5 -28 -14 -28 -7 0 -16 -9 -19 -20 -3 -11 -13 -20 -22 -20 -9 0 -41 -20 -69
-45 -29 -25 -61 -45 -70 -45 -10 0 -36 -19 -60 -42 -23 -24 -51 -48 -62 -54
-10 -7 -18 -19 -16 -28 2 -9 -3 -17 -10 -17 -7 -1 -28 -3 -46 -5 -41 -3 -62
-20 -59 -47 1 -16 -3 -21 -15 -19 -9 1 -19 -2 -23 -8 -3 -5 -19 -10 -35 -10
-19 0 -33 -7 -40 -20 -6 -11 -17 -20 -25 -20 -8 0 -15 -4 -15 -9 0 -5 -24 -21
-52 -36 -29 -15 -62 -36 -74 -46 -11 -10 -26 -19 -32 -19 -22 0 -61 -31 -56
-44 3 -8 -6 -15 -24 -19 -16 -3 -51 -24 -76 -47 -26 -22 -53 -40 -60 -40 -21
0 -105 -39 -113 -54 -4 -7 -50 -36 -100 -65 -51 -29 -99 -60 -105 -70 -7 -10
-31 -21 -53 -24 -22 -4 -46 -15 -53 -24 -7 -10 -18 -17 -24 -15 -6 2 -20 -6
-32 -17 -11 -11 -42 -29 -67 -39 -26 -11 -50 -25 -54 -32 -10 -16 -105 -60
-130 -60 -12 0 -36 -11 -55 -25 -19 -14 -40 -25 -47 -25 -7 0 -13 -4 -13 -10
0 -5 -9 -10 -19 -10 -11 0 -32 -7 -48 -15 -15 -8 -54 -22 -85 -30 -32 -9 -73
-28 -90 -44 -38 -33 -106 -48 -138 -31 -17 9 -25 9 -38 -2 -34 -27 -59 -36
-101 -36 -23 -1 -55 -9 -69 -18 -16 -11 -42 -17 -63 -15 -21 1 -40 -3 -44 -9
-4 -6 -15 -8 -26 -5 -10 4 -19 2 -19 -4 0 -6 -15 -18 -32 -26 -61 -29 -88 -46
-88 -56 0 -5 -8 -9 -18 -9 -44 0 -45 -31 -6 -133 21 -54 18 -54 142 -27 35 7
63 8 81 2 20 -7 35 -5 61 9 66 34 145 59 191 59 19 0 39 4 45 9 14 13 102 34
137 33 18 0 39 6 49 15 9 8 38 17 64 18 28 2 50 9 55 18 5 9 18 13 32 10 14
-3 38 2 55 11 17 9 40 16 50 16 11 0 39 9 63 20 24 11 58 20 75 20 17 0 50 7
75 15 24 8 71 19 104 25 110 17 151 26 165 36 8 5 47 14 85 21 39 6 84 15 100
18 l30 8 -22 -22 c-12 -11 -32 -21 -44 -21 -27 0 -163 -45 -202 -66 -18 -10
-40 -14 -57 -10 -16 3 -32 2 -34 -3 -3 -5 -26 -12 -51 -15 -25 -4 -75 -21
-112 -38 -47 -21 -84 -30 -125 -31 -47 -1 -58 -5 -58 -18 0 -21 -21 -29 -90
-35 -32 -3 -60 -11 -66 -19 -14 -19 -30 -19 -38 0 -8 22 -25 18 -37 -8 -13
-29 -61 -55 -116 -63 -23 -4 -49 -15 -59 -25 -9 -10 -41 -25 -72 -34 -113 -32
-127 -36 -147 -44 -18 -7 -57 -24 -160 -66 -70 -29 -151 -47 -188 -41 -48 8
-60 1 -45 -24 18 -28 0 -42 -61 -48 -28 -2 -56 -11 -62 -18 -6 -8 -21 -14 -33
-14 -13 0 -32 -11 -44 -25 -12 -14 -31 -25 -42 -25 -15 0 -20 -7 -20 -25 0
-23 -4 -25 -45 -25 -26 0 -59 -8 -80 -20 -20 -11 -45 -20 -56 -20 -11 0 -44
-18 -73 -39 -29 -22 -70 -43 -90 -46 -20 -4 -39 -11 -42 -16 -3 -5 -14 -9 -25
-9 -11 0 -25 -5 -32 -10 -41 -34 -88 -59 -91 -47 -2 6 -9 31 -15 55 -7 24 -19
45 -29 48 -9 3 -29 12 -44 20 -14 8 -39 14 -56 14 -40 0 -57 24 -58 81 -1 37
-8 57 -30 85 -16 19 -35 45 -43 57 -12 19 -24 22 -95 24 -87 3 -157 -15 -266
-66 -78 -36 -206 -169 -215 -223 -4 -21 -11 -38 -17 -38 -15 0 -68 -53 -68
-67 0 -7 -5 -13 -11 -13 -5 0 -21 -25 -34 -55 -14 -30 -40 -71 -58 -92 -18
-21 -39 -54 -47 -73 -7 -19 -19 -40 -26 -46 -7 -6 -21 -33 -30 -60 -9 -27 -21
-60 -27 -74 -6 -14 -11 -40 -13 -58 -2 -19 -9 -44 -17 -56 -8 -12 -17 -39 -20
-61 -3 -22 -11 -62 -19 -90 -12 -40 -20 -52 -43 -60 -16 -5 -39 -20 -52 -32
-12 -13 -30 -24 -40 -24 -10 -1 -31 -2 -47 -3 -17 0 -33 -9 -40 -21 -15 -26
-48 -54 -65 -55 -7 0 -24 -11 -37 -25 -32 -35 -64 -33 -64 3 0 15 -9 35 -20
45 -11 9 -20 24 -20 32 0 8 -9 15 -20 15 -24 0 -46 40 -55 103 -5 34 -4 47 5
47 8 0 11 9 7 29 -4 17 0 36 8 47 8 11 15 35 15 55 0 19 7 44 15 55 8 10 15
26 15 34 0 8 7 28 15 44 8 15 15 35 15 42 0 8 13 42 29 76 16 35 32 74 36 88
7 22 26 59 80 160 7 14 19 45 26 70 7 25 24 54 37 65 21 19 22 22 9 34 -14 11
-14 17 5 59 11 26 27 60 35 75 8 16 12 31 9 34 -3 3 2 19 10 35 12 24 14 48 8
116 -4 48 -6 96 -6 108 2 33 -42 49 -81 29 -16 -8 -45 -15 -63 -15 -18 0 -36
-4 -39 -10 -3 -5 -16 -10 -28 -10 -12 0 -35 -7 -51 -15 -15 -8 -33 -15 -38
-15 -6 0 -28 -20 -50 -44 -21 -25 -53 -54 -71 -65 -18 -11 -39 -32 -47 -46 -7
-14 -18 -25 -24 -25 -14 0 -166 -153 -166 -166 0 -6 -20 -24 -45 -42 -25 -17
-45 -38 -45 -47 0 -8 -6 -15 -14 -15 -8 0 -16 -10 -18 -22 -2 -13 -15 -29 -30
-36 -32 -15 -78 -59 -96 -93 -20 -37 -45 -65 -71 -78 -12 -7 -27 -26 -33 -43
-7 -20 -22 -35 -44 -44 -19 -8 -34 -15 -34 -17 0 -1 4 -17 9 -35 9 -29 7 -33
-13 -38 -28 -7 -116 -96 -116 -117 0 -9 -8 -18 -18 -22 -11 -3 -24 -17 -30
-30 -6 -14 -16 -25 -21 -25 -6 0 -18 -17 -27 -37 -10 -21 -33 -51 -51 -68 -17
-16 -40 -45 -50 -64 -11 -19 -28 -39 -38 -45 -11 -5 -32 -18 -48 -29 -32 -21
-52 -15 -37 13 5 10 10 32 10 49 0 16 5 33 10 36 6 3 10 17 10 31 0 31 58 144
74 144 7 0 10 17 8 47 -3 41 1 52 26 78 25 26 27 34 19 60 -8 26 -5 35 14 57
19 21 23 37 23 95 1 53 5 74 19 88 11 11 17 30 16 49 -4 65 2 97 22 117 19 19
19 21 3 33 -12 9 -15 22 -12 47 3 20 0 38 -8 46 -7 7 -10 21 -7 32 7 27 -25
78 -59 92 -49 20 -195 -8 -218 -42 -8 -12 -33 -41 -55 -65 -43 -46 -62 -70
-71 -94 -25 -61 -39 -82 -64 -95 -17 -9 -30 -22 -30 -31 0 -8 -12 -17 -28 -20
-35 -7 -74 -55 -91 -113 -12 -41 -69 -111 -90 -111 -5 0 -12 -8 -15 -18 -4
-11 -18 -25 -31 -32 -14 -7 -25 -20 -25 -29 -1 -9 -12 -34 -25 -56 -14 -22
-28 -47 -32 -55 -3 -8 -19 -31 -35 -51 -15 -20 -28 -43 -28 -51 0 -17 -31 -48
-48 -48 -7 0 -12 -4 -12 -9 0 -5 -9 -11 -20 -14 -14 -4 -20 -14 -20 -36 0 -16
-6 -34 -13 -38 -20 -12 -57 -69 -57 -87 0 -8 -6 -19 -14 -23 -7 -4 -22 -26
-32 -47 -15 -31 -31 -46 -77 -68 -46 -23 -58 -34 -57 -51 3 -35 -11 -66 -31
-72 -10 -4 -19 -13 -19 -21 0 -8 -4 -14 -10 -14 -5 0 -15 -11 -22 -24 -24 -45
-120 -146 -138 -146 -10 0 -21 -4 -24 -9 -9 -13 -134 -33 -167 -26 -30 7 -33
14 -44 83 -5 28 -3 48 6 58 10 12 8 19 -8 37 -15 16 -18 29 -13 47 4 14 5 41
3 61 -3 21 0 39 6 43 17 11 13 36 -5 36 -13 0 -15 6 -9 28 5 15 9 46 10 70 1
31 7 46 23 58 12 8 22 23 22 33 0 10 11 52 24 92 13 41 27 94 31 119 4 24 11
51 16 60 15 29 22 53 35 118 3 17 9 32 13 32 4 0 4 27 1 60 -4 42 -1 76 11
112 20 65 13 79 -53 103 -42 15 -55 16 -93 5 -32 -9 -45 -18 -45 -31 0 -10 -9
-20 -19 -24 -23 -7 -32 -47 -14 -63 20 -20 16 -46 -13 -71 -16 -14 -23 -28
-20 -38 4 -8 -7 -37 -24 -64 -16 -27 -30 -55 -30 -63 0 -7 -6 -19 -14 -25 -8
-7 -17 -27 -20 -46 -4 -19 -15 -39 -25 -44 -17 -9 -81 -154 -81 -184 0 -20
-35 -89 -58 -113 -10 -11 -24 -36 -31 -55 -6 -19 -22 -46 -36 -61 -14 -15 -25
-30 -25 -33 0 -3 -7 -13 -16 -22 -26 -30 -64 -93 -64 -107 0 -8 -10 -20 -23
-28 -12 -9 -30 -38 -40 -66 -10 -28 -26 -57 -34 -64 -9 -7 -22 -28 -30 -45 -7
-18 -19 -33 -27 -33 -20 0 -78 -70 -72 -86 3 -9 -1 -14 -12 -14 -9 0 -23 -9
-29 -19 -7 -11 -26 -22 -43 -26 -18 -4 -30 -13 -30 -23 -1 -9 -9 -27 -19 -39
-16 -20 -25 -22 -64 -17 -32 5 -55 2 -78 -10 -36 -18 -105 -21 -145 -6 -31 12
-91 74 -100 104 -4 12 -15 41 -26 64 -11 24 -17 51 -14 59 3 8 1 24 -6 36 -16
29 -18 40 -19 112 -1 62 13 115 31 115 5 0 10 7 10 15 0 8 -5 15 -11 15 -17 0
-3 170 20 241 12 34 21 72 21 84 0 12 11 43 24 69 13 27 27 59 30 72 4 13 12
24 20 24 12 0 56 101 56 129 0 7 11 33 25 59 14 26 25 56 25 66 0 11 6 27 13
35 7 9 26 45 42 80 15 36 45 83 66 105 22 22 39 47 39 56 0 9 11 26 25 38 14
13 23 27 20 32 -4 6 5 24 19 41 31 37 32 46 7 73 -13 14 -21 39 -23 76 -3 47
-6 56 -28 67 -35 16 -106 -2 -126 -32 -10 -16 -21 -21 -39 -18 -20 4 -23 2
-18 -16 3 -13 0 -23 -10 -27 -18 -6 -57 -68 -57 -88 0 -8 -7 -19 -14 -26 -17
-13 -54 -87 -65 -127 -5 -19 -15 -29 -30 -31 -20 -3 -22 -7 -16 -42 5 -31 3
-42 -15 -60 -12 -12 -19 -28 -16 -36 3 -8 -3 -34 -13 -57 -10 -23 -19 -59 -19
-80 0 -21 -4 -43 -9 -50 -8 -11 -66 -144 -69 -157 0 -3 -6 -25 -14 -50 -7 -25
-13 -48 -12 -52 1 -4 -9 -42 -23 -83 -13 -41 -22 -82 -19 -89 3 -8 1 -17 -5
-21 -6 -3 -11 -17 -11 -30 0 -13 -4 -27 -10 -30 -5 -3 -10 -17 -10 -31 0 -14
-5 -35 -11 -46 -18 -33 -10 -287 9 -311 13 -15 34 -146 26 -159 -7 -11 33
-116 51 -135 8 -8 15 -22 15 -31 0 -9 7 -26 15 -36 8 -10 12 -22 10 -26 -3 -4
8 -10 24 -13 19 -4 32 -16 41 -36 7 -17 19 -31 26 -31 8 0 14 -6 14 -13 0 -10
26 -17 82 -25 121 -17 178 -21 183 -12 2 4 31 15 64 24 32 9 65 23 72 32 7 8
27 21 44 28 29 12 47 27 110 87 12 10 26 19 33 19 7 0 12 7 12 15 0 8 10 20
23 26 12 6 39 29 59 50 20 22 41 39 46 39 16 0 72 90 72 115 0 8 9 17 20 20
11 3 20 11 20 16 0 5 20 32 45 58 25 26 45 57 45 68 0 23 15 38 48 46 21 5 22
3 22 -72 0 -52 5 -83 15 -97 8 -10 15 -25 15 -32 0 -7 7 -20 15 -28 8 -8 20
-23 27 -32 7 -9 31 -29 53 -43 22 -15 51 -37 65 -50 43 -40 203 -88 218 -65 7
11 109 56 127 56 6 0 26 13 45 29 19 15 45 31 58 35 26 9 222 205 222 223 0 6
14 17 30 25 16 7 30 16 30 21 0 4 11 19 24 32 14 13 26 32 28 42 2 11 17 21
41 26 26 6 37 14 37 27 0 10 16 44 35 76 18 33 40 73 48 89 8 17 21 36 30 44
10 7 17 23 17 35 0 13 12 33 26 47 14 13 32 38 39 54 16 37 51 75 70 75 7 0
18 15 25 34 6 18 20 42 30 51 11 10 20 24 20 31 0 8 16 20 35 28 23 10 35 22
35 34 0 11 7 25 15 32 8 7 15 19 15 26 0 11 92 148 111 164 3 3 8 12 12 22 3
9 18 22 34 30 15 8 27 21 27 30 -1 10 8 18 26 20 27 4 27 3 23 -36 -9 -94 -13
-109 -30 -121 -12 -9 -16 -24 -15 -48 1 -20 -2 -38 -8 -42 -5 -3 -10 -21 -10
-38 0 -18 -9 -50 -20 -72 -11 -22 -20 -49 -20 -62 0 -12 -4 -25 -10 -28 -5 -3
-10 -17 -10 -31 0 -13 -4 -32 -9 -42 -12 -21 -56 -143 -72 -199 -7 -23 -20
-51 -31 -62 -22 -24 -23 -38 -3 -57 8 -9 15 -24 15 -34 0 -10 4 -22 10 -25 5
-3 10 -19 10 -36 0 -20 5 -29 16 -29 9 0 32 -10 51 -21 70 -43 269 -11 296 48
5 12 18 23 27 23 9 0 45 27 81 60 35 33 67 60 72 60 4 0 7 9 7 19 0 11 9 22
19 26 11 3 18 12 15 19 -5 13 15 40 85 112 32 32 41 48 32 53 -9 6 -1 17 27
40 21 18 44 48 51 67 8 22 19 34 30 34 12 0 24 13 32 33 7 17 23 46 36 63 13
17 23 36 23 41 0 6 9 13 20 16 12 3 20 14 20 26 0 23 79 102 115 114 14 5 25
19 28 35 6 29 92 122 113 122 8 0 18 9 24 20 6 11 16 20 23 20 7 0 18 14 24
30 9 23 18 30 37 30 19 0 26 5 26 20 0 23 33 60 54 60 8 0 21 8 28 18 21 29
40 37 37 16 -2 -11 0 -25 5 -32 5 -8 2 -18 -8 -25 -9 -7 -20 -37 -25 -69 -6
-31 -19 -78 -31 -105 -60 -133 -76 -176 -90 -230 -4 -18 -22 -55 -40 -84 -22
-36 -30 -59 -26 -75 4 -14 -1 -36 -14 -56 -24 -39 -26 -78 -5 -78 19 0 20 -24
1 -39 -8 -7 -15 -38 -18 -78 -2 -39 -9 -68 -16 -71 -14 -4 -16 -52 -2 -52 6 0
10 -13 10 -30 0 -16 5 -30 11 -30 12 0 108 -100 109 -112 0 -5 8 -8 19 -8 10
0 26 -11 35 -24 15 -24 15 -26 -14 -43 -17 -9 -33 -25 -36 -35 -3 -10 -17 -21
-32 -24 -47 -10 -52 -13 -46 -29 5 -11 -1 -15 -25 -15 -21 0 -31 -5 -31 -15 0
-25 -64 -82 -101 -90 -23 -4 -51 -25 -86 -61 -29 -30 -57 -54 -62 -54 -6 0
-16 -9 -23 -21 -7 -11 -29 -30 -48 -41 -37 -22 -100 -86 -100 -100 0 -5 -5 -6
-11 -3 -6 4 -20 -2 -32 -12 -21 -19 -81 -57 -122 -78 -11 -6 -28 -27 -37 -47
-13 -27 -27 -39 -55 -49 -50 -16 -82 -40 -83 -60 0 -16 -66 -85 -137 -144 -18
-15 -33 -33 -33 -41 0 -8 -4 -14 -8 -14 -10 0 -93 -81 -107 -105 -6 -10 -14
-17 -18 -17 -16 3 -57 -47 -57 -71 0 -14 -4 -29 -10 -32 -5 -3 -10 -15 -10
-26 0 -12 -7 -19 -20 -19 -11 0 -20 -5 -20 -11 0 -7 -11 -22 -25 -35 -13 -12
-27 -35 -31 -51 -4 -15 -15 -41 -25 -58 -58 -96 -80 -151 -74 -182 3 -17 13
-34 23 -37 19 -7 57 -66 42 -66 -6 0 -10 -18 -10 -40 0 -22 -5 -40 -11 -40 -7
0 -10 -23 -7 -67 l3 -68 -28 -3 c-21 -3 -27 -8 -23 -19 3 -8 6 -18 6 -22 0 -4
17 -16 38 -27 20 -10 56 -31 79 -46 31 -21 54 -28 90 -28 27 0 53 -4 58 -8 27
-24 137 -52 203 -52 39 0 72 -5 74 -10 2 -6 65 -15 143 -20 162 -12 217 -12
225 -2 3 4 19 13 35 20 26 11 28 10 13 -1 -37 -29 -21 -39 51 -35 73 4 95 13
71 28 -11 7 -8 10 13 10 21 0 30 -6 34 -20 4 -14 14 -20 34 -20 16 0 29 5 29
10 0 6 9 10 21 10 14 0 19 5 16 14 -5 13 11 15 96 15 56 0 116 2 132 3 26 3
30 0 30 -22 0 -23 3 -25 35 -22 44 5 47 8 32 32 -11 19 -9 20 35 22 67 3 83 2
121 -7 28 -7 32 -5 32 13 0 11 7 22 15 26 8 3 15 2 15 -3 0 -13 112 -21 127
-9 7 5 24 7 39 4 14 -4 31 -2 38 3 15 12 84 17 114 7 12 -4 22 -3 22 2 0 5 61
8 147 6 91 -2 151 0 159 7 9 8 11 5 7 -11 -6 -21 -4 -22 53 -15 130 14 150 17
163 25 25 15 -1 31 -48 30 -71 -3 -79 0 -41 15 20 8 76 14 128 14 50 1 92 5
92 10 0 15 52 20 103 10 38 -7 52 -6 63 5 20 21 57 31 62 17 5 -16 42 -14 48
4 5 12 25 15 89 15 46 0 87 -4 90 -10 12 -20 35 -10 35 15 0 14 5 25 10 25 6
0 10 -4 10 -10 0 -13 302 -5 328 9 12 6 40 8 64 5 34 -5 48 -2 61 11 12 11 26
15 41 11 15 -4 28 0 37 10 7 9 21 13 33 10 27 -7 179 33 189 50 11 19 57 18
57 -1 0 -11 8 -13 33 -8 17 3 37 10 44 15 7 6 25 7 41 4 17 -4 43 0 66 9 22 9
47 14 58 12 10 -3 36 4 59 15 27 13 44 16 52 9 8 -6 31 -5 67 5 30 8 66 14 80
14 14 0 32 9 40 20 10 13 17 16 26 9 8 -6 27 -6 55 0 24 6 63 11 85 11 24 0
51 8 65 18 14 11 58 23 109 31 47 6 99 18 115 25 41 19 98 36 118 36 9 0 17 3
17 8 0 11 124 8 133 -3 4 -6 11 -3 18 8 5 9 18 17 27 17 10 0 22 10 27 23 8
18 21 23 75 28 79 8 162 29 183 47 26 22 136 46 151 33 10 -9 15 -7 18 7 3 11
22 23 49 31 24 7 46 16 49 20 9 12 125 51 173 57 38 5 47 11 47 26 0 14 6 19
23 16 12 -1 33 5 47 15 13 9 39 17 58 17 18 0 50 9 72 20 22 11 53 20 70 20
38 0 81 27 79 49 -4 49 1 56 46 67 41 9 45 9 45 -9 0 -13 5 -17 16 -13 9 3 26
6 38 6 14 0 28 11 39 30 10 17 26 30 35 30 10 0 27 7 39 15 16 11 28 13 48 5
35 -13 35 -13 35 10 0 11 6 22 13 24 61 16 97 34 125 62 32 33 90 53 112 39
15 -9 100 27 100 43 0 8 9 16 19 19 16 4 18 11 14 39 -6 39 4 43 48 17 24 -14
33 -15 47 -5 9 7 24 15 32 18 35 14 66 27 82 35 10 5 24 9 32 9 8 0 16 5 18
10 2 6 23 17 47 26 24 8 58 26 76 39 17 14 39 25 47 25 8 0 25 11 38 25 24 25
50 33 50 15 0 -5 7 -10 15 -10 10 0 15 10 15 29 0 22 5 29 18 28 21 -1 102 34
102 45 0 10 118 68 140 68 19 0 52 63 44 85 -10 24 39 41 76 25 29 -12 33 -11
64 19 17 17 40 31 49 31 9 0 17 4 17 10 0 5 12 13 28 16 15 4 40 19 55 34 15
15 40 33 55 41 15 8 41 23 58 34 17 11 49 31 72 45 23 14 44 33 47 43 4 9 15
17 26 17 10 0 29 11 41 25 12 14 27 25 33 25 6 0 22 13 35 28 14 16 38 32 54
36 18 4 26 12 22 21 -3 8 3 16 14 20 10 3 31 16 46 28 16 12 33 22 39 22 19 1
75 40 80 55 3 9 20 24 37 35 18 10 45 31 61 47 15 15 37 28 50 28 26 0 47 17
47 37 0 14 113 133 127 133 13 0 163 145 163 157 0 6 9 9 20 6 11 -3 20 0 20
6 0 14 112 121 145 138 12 7 28 27 35 45 8 18 24 44 37 57 12 13 39 45 60 72
20 27 40 49 45 49 4 0 15 16 24 35 9 20 25 40 35 46 11 5 19 16 19 24 0 8 9
20 20 27 11 7 20 21 20 31 0 21 46 92 79 121 11 11 21 26 21 35 0 9 13 41 29
71 53 97 81 158 81 173 0 8 7 20 15 27 8 7 15 22 15 34 0 12 6 31 14 41 7 10
11 27 8 37 -2 10 1 25 8 32 8 11 9 20 0 36 -7 14 -8 36 -2 70 8 42 6 57 -10
89 -15 31 -17 44 -8 60 6 12 7 21 1 21 -5 0 -17 24 -26 53 -26 81 -41 110 -75
142 -17 17 -46 45 -63 64 -40 42 -101 81 -127 81 -13 0 -20 7 -20 18 0 11 -11
24 -25 30 -14 6 -25 16 -25 22 0 5 -13 10 -30 10 -16 0 -46 9 -67 21 -23 13
-46 19 -64 15 -18 -3 -32 1 -43 13 -17 19 -121 38 -176 33 -18 -2 -28 4 -35
20 -9 20 -19 23 -70 26 -33 2 -64 7 -69 13 -6 5 -32 9 -58 9 -28 0 -48 5 -48
11 0 7 -13 9 -37 5 -60 -10 -154 -9 -201 2 -25 5 -61 6 -88 1 -30 -6 -51 -5
-63 3 -15 9 -24 8 -45 -5 -32 -21 -68 -22 -111 -1 -25 12 -38 13 -54 5 -11 -6
-40 -11 -65 -11 -35 0 -48 5 -60 22 l-16 22 -22 -21 c-20 -19 -39 -23 -153
-28 -71 -4 -146 -12 -165 -18 -19 -6 -54 -10 -77 -8 -23 1 -50 -2 -61 -8 -14
-7 -37 -8 -76 0 -44 8 -60 7 -78 -4 -43 -26 -107 -42 -120 -29 -15 15 -45 16
-50 1 -2 -5 -42 -12 -88 -14 -103 -6 -135 -12 -149 -29 -8 -9 -26 -12 -56 -9
-24 3 -52 2 -62 -1 -10 -4 -48 -9 -86 -10 -49 -2 -73 -8 -88 -22 -13 -12 -32
-17 -55 -15 -20 1 -34 -2 -34 -8 0 -7 -14 -9 -40 -5 -39 6 -97 -2 -228 -33
-35 -8 -66 -12 -69 -9 -3 3 -1 18 4 33 6 15 17 48 24 73 7 25 17 51 23 59 6 8
9 24 8 36 -2 14 8 33 26 51 25 25 30 39 35 103 3 41 11 79 17 85 5 5 10 20 10
32 0 12 6 27 14 33 14 12 26 64 26 116 1 42 59 104 92 97 4 -1 10 9 14 22 3
13 23 35 45 49 34 23 39 24 39 8 0 -30 12 -32 27 -4 10 19 10 28 2 33 -6 4 8
17 35 30 25 12 46 26 46 31 0 5 7 9 15 9 9 0 42 25 73 55 31 30 64 55 73 55 9
0 19 6 22 14 3 8 27 29 54 46 26 18 62 49 80 68 18 19 51 43 73 53 22 10 40
22 40 28 0 9 38 27 51 23 4 -1 10 9 13 22 4 18 11 23 26 19 16 -4 20 0 20 20
0 20 4 24 20 20 15 -4 35 9 75 46 29 28 60 51 67 51 7 0 26 21 42 47 17 25 32
41 34 35 6 -18 22 -14 56 12 17 13 41 26 54 30 27 9 57 51 47 66 -4 6 -13 9
-21 6 -8 -3 -14 -2 -14 2 0 12 68 34 81 27 6 -4 36 19 67 52 32 33 65 62 75
66 9 3 17 12 17 20 0 7 26 27 58 43 31 17 62 40 67 52 6 13 24 26 40 30 17 5
31 14 31 20 1 7 2 15 3 20 0 4 15 13 32 21 17 7 46 28 64 46 18 18 41 35 51
37 11 2 20 13 22 26 2 13 10 26 18 29 8 3 14 11 14 19 0 8 10 14 23 14 12 0
34 8 49 18 33 21 118 111 118 123 0 5 5 9 12 9 16 0 89 55 156 117 32 29 62
53 68 53 7 0 18 10 27 23 8 12 53 56 100 97 47 41 91 84 98 97 7 13 21 23 31
23 10 0 23 11 28 24 9 26 15 33 120 145 39 41 70 78 70 81 0 4 15 21 33 38 17
17 48 52 67 77 19 26 63 82 98 126 34 43 62 82 62 87 0 4 14 21 30 37 17 16
28 35 26 42 -3 6 3 15 12 18 16 5 52 69 52 93 0 7 6 12 13 12 7 0 24 26 37 58
12 31 29 64 36 73 8 8 14 21 14 28 0 7 9 30 19 50 42 80 71 153 71 179 0 15 6
50 13 77 19 69 15 231 -7 272 -9 18 -16 41 -16 51 0 11 -20 38 -45 61 -25 23
-45 43 -45 46 0 23 -154 135 -186 135 -12 0 -24 7 -28 15 -3 8 -14 15 -25 15
-11 0 -23 5 -26 10 -4 6 -15 8 -24 5 -10 -3 -24 1 -31 10 -7 8 -21 15 -31 15
-11 0 -19 5 -19 11 0 6 -9 8 -20 4 -11 -3 -34 0 -52 8 -47 21 -101 30 -193 32
-81 1 -123 9 -160 30 -11 6 -36 9 -55 8 -93 -9 -204 -6 -208 5 -4 14 -15 15
-26 5z m-2262 -4149 c10 -27 6 -68 -9 -88 -8 -11 -15 -29 -15 -39 0 -11 -9
-35 -21 -53 -11 -19 -18 -38 -14 -44 7 -11 -19 -110 -40 -150 -22 -43 -43
-104 -50 -141 -7 -47 -20 -57 -89 -71 -44 -10 -61 -10 -76 0 -29 18 -46 15
-64 -13 -10 -16 -26 -25 -41 -25 -14 0 -25 -4 -25 -10 0 -5 -13 -10 -30 -10
-20 0 -30 -5 -30 -15 0 -17 -16 -20 -25 -5 -8 13 -68 13 -81 0 -6 -6 -33 -12
-61 -14 -27 -2 -62 -11 -76 -20 -16 -11 -50 -18 -94 -19 -45 -2 -77 -8 -93
-20 -27 -19 -60 -23 -60 -7 0 18 -27 11 -41 -11 -11 -15 -25 -21 -54 -22 -22
0 -46 -5 -53 -10 -6 -5 -30 -10 -52 -11 -27 0 -40 -5 -40 -15 0 -11 -12 -13
-55 -8 -31 3 -55 2 -55 -4 0 -5 -4 -9 -10 -9 -21 0 -9 18 25 36 19 10 35 22
35 25 0 4 24 19 53 34 28 15 59 33 68 41 8 8 23 14 31 14 9 0 21 7 28 15 7 8
18 15 25 15 8 0 42 19 78 43 35 24 80 50 98 57 19 8 45 27 57 42 13 16 32 28
42 28 9 0 34 14 55 30 21 17 43 30 50 30 7 0 24 9 38 20 14 11 32 20 41 20 9
0 16 6 16 13 0 11 61 57 76 57 3 0 20 10 37 22 18 13 36 22 42 21 5 -2 18 11
27 27 10 18 25 30 38 30 25 0 90 41 90 57 0 6 -4 15 -10 18 -21 13 -8 22 29
21 27 0 50 7 70 22 17 12 39 22 50 22 18 0 19 4 11 25 -12 30 -1 38 43 30 25
-5 37 -2 51 14 23 25 51 27 60 5z m1990 -473 c8 -13 54 -19 64 -9 6 6 18 5 30
-3 17 -11 28 -11 54 -1 24 8 50 9 93 2 33 -5 103 -11 155 -14 52 -3 102 -7
110 -10 8 -2 49 -10 90 -16 41 -6 95 -22 120 -35 25 -13 62 -26 83 -30 20 -4
37 -11 37 -16 0 -4 12 -8 28 -8 67 -1 104 -9 125 -29 13 -12 35 -22 49 -22 14
0 33 -9 43 -20 10 -11 24 -20 31 -20 7 0 14 -3 16 -7 5 -13 96 -83 106 -83 6
0 13 -14 17 -30 4 -17 12 -36 18 -43 25 -25 36 -98 25 -166 -7 -47 -7 -66 1
-69 13 -4 15 -48 2 -56 -4 -3 -11 -31 -14 -62 -3 -31 -13 -64 -21 -73 -9 -10
-16 -24 -16 -32 0 -36 -22 -88 -40 -94 -19 -6 -36 -39 -32 -61 1 -6 -5 -17
-13 -24 -8 -7 -15 -19 -15 -26 0 -8 -4 -14 -10 -14 -5 0 -15 -18 -21 -40 -7
-22 -16 -40 -20 -40 -18 0 -49 -46 -49 -72 0 -17 -8 -33 -20 -40 -11 -7 -20
-19 -20 -26 0 -7 -7 -15 -15 -18 -8 -3 -24 -21 -35 -39 -12 -19 -29 -36 -38
-40 -19 -6 -62 -67 -62 -89 0 -8 -16 -24 -35 -36 -19 -12 -35 -28 -35 -36 0
-7 -12 -21 -27 -31 -36 -23 -119 -110 -139 -145 -8 -16 -22 -28 -30 -28 -25 0
-91 -57 -98 -85 -4 -14 -13 -25 -20 -25 -8 0 -28 -16 -45 -35 -17 -19 -37 -35
-46 -35 -9 0 -18 -6 -21 -14 -3 -8 -18 -19 -33 -26 -16 -6 -33 -22 -39 -35 -6
-13 -27 -29 -46 -36 -20 -7 -36 -19 -36 -26 0 -7 -4 -13 -9 -13 -13 0 -101
-85 -101 -97 0 -5 -21 -20 -46 -32 -25 -13 -62 -39 -82 -58 -66 -62 -163 -132
-193 -138 -16 -4 -29 -11 -29 -16 0 -5 -15 -15 -34 -23 -19 -8 -38 -20 -42
-28 -5 -8 -35 -29 -68 -48 -32 -18 -61 -41 -63 -51 -3 -11 -13 -19 -23 -19
-10 0 -20 -8 -22 -18 -3 -9 -30 -30 -61 -45 -31 -15 -59 -32 -62 -37 -3 -6
-17 -10 -30 -10 -21 0 -111 -51 -125 -71 -3 -4 -22 -14 -42 -22 -22 -9 -38
-23 -38 -32 0 -13 -4 -14 -21 -5 -17 10 -27 6 -64 -24 -24 -20 -49 -36 -57
-36 -7 -1 -29 -14 -48 -30 -19 -17 -43 -30 -53 -30 -11 0 -34 -15 -52 -34 -20
-22 -46 -37 -69 -41 -20 -4 -46 -15 -59 -25 -12 -9 -35 -20 -50 -24 -16 -4
-40 -18 -53 -31 -14 -14 -34 -25 -45 -25 -11 0 -22 -7 -25 -15 -4 -8 -16 -15
-28 -15 -18 0 -102 -36 -116 -50 -3 -3 -19 -6 -37 -6 -34 -2 -82 -32 -83 -52
0 -7 -24 -23 -52 -37 -29 -13 -60 -29 -68 -34 -8 -6 -41 -13 -73 -16 -38 -4
-65 -13 -78 -26 -10 -10 -23 -19 -29 -19 -5 0 -17 -8 -27 -19 -17 -17 -51 -29
-99 -35 -11 -1 -36 -14 -55 -28 -19 -14 -49 -28 -68 -32 -18 -3 -61 -18 -95
-32 -33 -15 -74 -32 -91 -39 -16 -7 -50 -22 -75 -33 -25 -11 -61 -23 -80 -27
-19 -4 -51 -17 -73 -28 -21 -11 -58 -22 -83 -25 -26 -3 -44 -10 -44 -17 0 -8
-34 -19 -85 -30 -47 -10 -85 -22 -85 -27 0 -4 -15 -8 -33 -8 -18 0 -38 -5 -45
-12 -11 -11 -90 -29 -129 -29 -12 1 -27 -8 -32 -18 -6 -10 -23 -21 -38 -24
-16 -3 -57 -13 -93 -22 -36 -9 -85 -20 -109 -26 -25 -5 -55 -16 -67 -24 -13
-8 -46 -15 -74 -15 -28 0 -59 -4 -69 -10 -10 -5 -54 -12 -97 -16 -44 -4 -83
-12 -89 -19 -5 -7 -41 -18 -80 -25 -38 -6 -96 -18 -127 -26 -32 -8 -71 -14
-88 -14 -17 0 -44 -7 -59 -15 -16 -8 -44 -14 -62 -14 -82 -1 -95 -2 -136 -16
-27 -9 -59 -13 -82 -9 -24 4 -41 2 -45 -5 -4 -6 -20 -11 -35 -11 -15 0 -31 -4
-37 -9 -5 -5 -52 -12 -104 -14 -96 -5 -150 -13 -295 -42 -44 -8 -105 -16 -135
-17 -30 0 -59 -4 -65 -8 -5 -4 -46 -10 -90 -12 -44 -3 -90 -11 -102 -18 -17
-11 -29 -11 -59 -2 -21 6 -44 7 -53 3 -9 -5 -43 -12 -76 -16 -33 -4 -65 -11
-72 -17 -7 -5 -45 -11 -85 -11 -40 -1 -79 -6 -85 -10 -7 -5 -34 -10 -60 -12
-41 -4 -230 -21 -446 -40 -32 -2 -63 -8 -69 -11 -6 -4 -74 -9 -151 -10 -78 -2
-155 -8 -172 -13 -50 -15 -102 -20 -112 -10 -5 5 -33 4 -68 -3 -33 -7 -98 -13
-146 -14 -47 0 -94 -6 -105 -11 -18 -10 -131 -16 -254 -14 -132 2 -266 9 -280
14 -62 23 -134 24 -190 3 -35 -14 -55 -15 -96 -8 -29 5 -59 5 -67 1 -21 -12
-109 5 -209 39 -47 17 -112 34 -142 37 -31 4 -59 11 -62 16 -3 5 -12 9 -21 9
-24 0 -91 58 -95 83 -4 25 52 201 70 219 7 7 12 20 12 29 0 10 4 20 9 23 5 3
12 17 15 31 7 28 94 155 106 155 5 0 11 13 15 29 4 19 18 37 41 50 19 11 34
27 34 35 0 8 6 19 14 23 8 4 37 36 64 70 59 74 109 123 123 123 6 0 31 23 56
50 25 28 53 50 63 50 10 0 22 9 25 20 3 11 13 20 20 20 8 0 21 12 29 28 8 15
40 43 70 62 31 19 58 42 61 51 3 8 24 24 48 34 23 10 65 40 92 67 80 78 98 94
135 119 19 13 45 36 58 52 13 15 30 27 37 27 7 0 24 9 38 20 14 11 32 20 40
20 9 0 25 14 37 30 12 17 44 42 71 55 27 14 49 30 49 35 0 6 9 10 20 10 13 0
20 7 20 18 0 11 13 23 35 31 19 7 40 21 45 32 6 10 16 19 21 19 6 0 24 11 41
25 16 14 35 25 43 25 7 0 20 11 29 25 10 14 28 30 42 35 13 5 24 14 24 20 0 5
13 10 29 10 39 0 61 9 61 26 0 7 19 23 42 35 38 19 43 20 53 5 7 -9 16 -16 21
-16 5 0 20 -12 33 -25 13 -14 31 -25 40 -25 10 0 26 -7 37 -15 10 -8 37 -15
59 -15 22 -1 58 -7 80 -15 42 -16 150 -11 161 6 3 5 16 9 28 9 13 0 29 7 36
15 7 8 21 15 31 15 26 0 125 55 179 99 24 20 60 41 79 46 21 6 37 18 41 30 7
26 41 65 57 65 7 0 13 4 13 8 0 4 18 27 40 50 22 22 40 46 40 53 0 6 9 22 20
36 11 14 20 33 20 43 0 9 14 23 32 31 26 11 34 21 39 51 3 21 13 46 22 56 10
10 17 30 17 44 0 14 7 29 16 32 10 4 13 13 9 25 -3 10 1 23 10 31 8 6 17 27
21 46 3 19 12 34 19 34 7 0 18 7 25 15 7 8 21 15 32 15 11 0 22 8 25 19 3 11
21 27 41 35 21 9 44 20 52 25 31 17 87 40 135 56 28 9 69 27 92 41 23 13 48
24 55 24 8 0 30 14 49 31 19 17 46 33 62 36 15 3 30 10 33 14 3 5 18 9 33 9
15 0 36 9 46 20 26 29 123 63 160 56 27 -5 32 -3 42 24 8 20 18 30 32 30 12 0
21 5 21 10 0 6 10 10 21 10 12 0 73 25 136 56 63 30 131 58 151 61 20 3 48 14
61 25 13 10 34 18 48 18 13 0 49 14 80 30 31 17 66 30 78 30 12 0 28 6 34 14
7 8 35 17 64 21 29 4 62 13 74 21 12 8 42 14 67 14 40 0 45 3 55 31 10 29 14
31 42 25 23 -4 47 1 88 21 31 15 59 31 62 36 4 5 12 7 18 3 6 -4 25 1 42 10
20 10 43 14 62 10 28 -6 72 8 139 45 10 5 28 9 41 9 13 0 28 5 34 11 10 10 77
24 171 36 24 3 46 11 49 19 3 8 16 14 28 14 13 0 27 5 30 10 3 6 28 10 55 10
27 0 51 4 55 9 3 6 37 10 75 9 39 0 76 4 83 10 25 21 94 37 155 36 l62 -1 0
28 c0 24 4 29 25 29 18 0 25 -5 25 -19 0 -11 -4 -23 -10 -26 -5 -3 -10 -17
-10 -30 0 -13 -5 -27 -11 -30 -6 -4 -8 -13 -5 -21 3 -7 -1 -20 -9 -28 -8 -8
-15 -23 -15 -33 -1 -20 -31 -110 -44 -131 -4 -7 -10 -41 -13 -75 -4 -42 -12
-68 -24 -80 -22 -21 -21 -17 -24 -91 -1 -37 -7 -63 -16 -70 -8 -6 -21 -22 -30
-36 -18 -28 -59 -139 -59 -161 -1 -8 -9 -32 -20 -54 -24 -49 -24 -61 -5 -69
21 -8 19 -28 -2 -24 -26 4 -43 -10 -43 -35 0 -13 -9 -41 -20 -62 -22 -44 -28
-66 -32 -137 -2 -33 -8 -48 -19 -51 -11 -3 -19 -20 -24 -48 -4 -24 -14 -56
-21 -71 -8 -15 -14 -39 -14 -54 0 -14 -11 -39 -25 -56 -14 -16 -25 -38 -25
-49 0 -27 -26 -75 -45 -82 -10 -4 -15 -20 -15 -44 -1 -21 -5 -58 -11 -83 -6
-25 -13 -58 -16 -73 -3 -16 -12 -31 -19 -34 -11 -4 -13 -15 -8 -39 4 -22 2
-34 -5 -34 -6 0 -11 -11 -11 -25 0 -14 -7 -42 -15 -62 -33 -78 -11 -123 66
-138 83 -17 89 -14 166 62 40 40 73 79 73 88 0 9 14 30 30 47 17 16 30 35 30
41 0 7 9 18 20 25 17 10 19 22 18 74 -1 41 2 63 11 66 16 5 -5 32 -25 32 -20
0 -64 -41 -64 -59 0 -19 -76 -84 -89 -77 -9 6 -21 -16 -21 -40 0 -20 -74 -94
-94 -94 -27 0 -30 27 -7 70 11 22 18 47 15 55 -8 21 14 45 41 45 34 0 61 35
48 63 -12 27 -9 167 5 193 5 10 13 34 17 51 3 18 11 35 16 38 5 4 9 19 9 35 0
16 5 32 10 35 6 3 10 14 10 23 0 9 10 37 22 62 11 25 22 56 24 70 1 14 8 42
15 62 10 30 9 40 -1 53 -10 12 -10 15 4 15 9 0 19 8 23 18 3 9 17 40 30 68 29
62 53 147 53 190 0 17 7 37 15 44 9 7 15 29 15 51 0 21 5 41 10 44 6 4 17 22
25 41 8 19 21 41 28 49 8 7 22 49 32 92 10 43 25 89 34 103 8 14 17 38 18 54
2 16 7 34 12 40 5 6 12 31 16 56 4 25 13 52 19 60 14 17 42 91 51 136 6 34 48
64 88 64 13 0 44 7 68 16 25 8 57 13 76 9 17 -3 34 -1 38 5 3 5 28 10 54 10
26 0 74 9 107 21 74 26 182 28 218 4 25 -17 41 -17 190 -1 28 4 55 1 62 -5 7
-6 41 -10 76 -9 35 0 72 0 83 0 11 0 35 2 53 6 21 4 44 1 66 -10 19 -9 48 -16
65 -16 17 0 40 -5 50 -12 15 -9 25 -9 46 0 37 17 51 15 74 -9 17 -18 27 -21
60 -15 29 4 42 2 48 -8 13 -23 82 -66 106 -66 13 0 28 -5 34 -11 7 -7 33 -14
59 -16 51 -4 82 -17 101 -42 11 -14 15 -13 37 12 30 35 23 65 -21 87 -17 8
-38 23 -48 33 -12 13 -26 16 -45 12 -22 -5 -34 1 -62 29 -19 19 -48 38 -64 42
-16 4 -32 12 -36 18 -7 11 -54 16 -141 15 -28 0 -59 7 -72 15 -34 22 -153 66
-180 66 -12 0 -28 7 -35 14 -8 10 -18 12 -33 7 -28 -11 -175 -3 -202 10 -13 6
-36 7 -60 2 -65 -14 -144 -8 -159 12 -11 15 -16 16 -35 5 -12 -6 -29 -9 -38
-6 -8 4 -33 2 -54 -4 -21 -6 -94 -12 -161 -14 -111 -4 -228 -18 -268 -33 -52
-20 -74 -2 -46 39 20 28 119 58 193 58 28 0 54 4 57 9 4 5 39 15 79 21 39 7
79 16 87 20 23 12 269 53 284 47 8 -3 31 -1 52 5 89 23 173 40 234 48 36 5
112 19 170 30 58 12 143 23 190 26 47 2 130 8 185 13 55 6 133 10 174 11 53 0
79 5 91 15 15 13 30 14 96 6 43 -5 81 -8 85 -5 4 2 31 7 60 9 29 3 55 8 58 10
7 8 29 6 35 -4z m-2239 -338 c-12 -23 -21 -27 -65 -28 -50 -2 -71 7 -49 21 9
5 93 28 121 33 4 1 1 -11 -7 -26z m-157 -53 c-15 -13 -33 -19 -53 -17 -16 3
-37 1 -45 -3 -8 -5 -55 -13 -103 -19 -84 -11 -123 -24 -139 -45 -4 -6 -13 -4
-23 4 -15 12 -19 12 -29 -2 -13 -18 -92 -23 -116 -8 -12 7 76 33 160 47 19 3
43 9 52 14 9 5 31 9 48 9 17 0 41 6 53 14 12 7 57 16 100 20 43 3 86 10 95 15
27 15 27 -7 0 -29z m-3529 -924 c7 -9 9 -29 5 -55 -8 -51 5 -69 46 -63 25 4
32 0 37 -17 3 -14 16 -23 39 -27 19 -3 34 -10 34 -15 0 -5 19 -9 43 -9 39 0
44 -3 54 -31 14 -36 10 -49 -15 -49 -10 0 -25 -9 -35 -20 -9 -11 -26 -20 -37
-20 -11 0 -20 -4 -20 -10 0 -5 -5 -10 -10 -10 -6 0 -29 -13 -52 -30 -22 -16
-52 -30 -65 -30 -12 0 -23 -4 -23 -10 0 -5 -9 -10 -21 -10 -12 0 -33 -13 -48
-29 -15 -16 -48 -40 -72 -52 -24 -12 -51 -28 -59 -34 -8 -7 -27 -15 -42 -19
-15 -3 -39 -18 -53 -32 -14 -14 -29 -23 -34 -20 -5 3 -16 -5 -25 -19 -9 -14
-23 -25 -30 -25 -8 0 -16 -7 -20 -15 -3 -8 -12 -15 -21 -15 -9 0 -29 -7 -44
-15 -28 -14 -29 -14 -34 13 -4 19 0 30 14 40 10 7 19 22 19 32 0 25 47 112 65
123 8 4 15 17 15 27 0 11 19 46 43 77 24 32 49 73 57 91 7 19 25 46 39 62 14
15 38 43 54 61 50 62 132 146 152 157 26 15 30 15 44 -2z m171 -554 c0 -10
-56 -52 -70 -52 -5 0 -10 -9 -10 -21 0 -12 -8 -23 -20 -26 -13 -3 -20 -14 -20
-28 0 -13 -10 -30 -25 -39 -14 -9 -25 -25 -25 -35 0 -20 -19 -31 -51 -31 -10
0 -19 -4 -19 -10 0 -5 -12 -10 -26 -10 -22 0 -25 -4 -21 -20 7 -26 -48 -80
-80 -80 -12 0 -25 -4 -28 -10 -3 -5 -23 -10 -44 -10 -20 0 -42 -5 -49 -12 -9
-9 -15 -9 -24 0 -14 14 -48 16 -48 4 0 -5 -20 -9 -45 -9 -36 0 -43 3 -34 14 6
7 18 13 25 13 8 0 19 12 24 26 8 21 16 25 35 22 19 -4 26 0 34 22 6 18 19 30
37 34 15 4 41 21 58 37 18 18 40 29 57 29 19 0 30 6 34 20 4 13 15 20 31 20
14 0 39 13 57 30 18 16 42 30 54 30 12 0 28 7 37 15 8 8 27 15 41 15 19 0 29
6 32 20 8 29 83 67 83 42z"/>
<path d="M32126 31603 c-9 -9 -95 -32 -122 -33 -12 0 -36 -13 -54 -30 -18 -17
-43 -30 -58 -30 -14 0 -39 -11 -56 -24 -17 -13 -49 -32 -72 -44 -22 -11 -60
-37 -83 -56 -24 -20 -47 -36 -53 -36 -11 0 -38 -25 -38 -37 0 -7 -61 -52 -84
-62 -5 -2 -17 -11 -27 -20 -9 -9 -44 -38 -77 -66 -32 -27 -69 -65 -82 -83 -12
-18 -40 -42 -60 -53 -21 -12 -43 -32 -49 -45 -5 -12 -22 -30 -36 -40 -14 -9
-25 -20 -25 -25 0 -10 -79 -89 -88 -89 -4 0 -25 -19 -47 -42 -23 -24 -64 -62
-91 -86 -106 -91 -234 -218 -234 -233 0 -8 -25 -39 -55 -69 -30 -30 -55 -58
-55 -63 0 -4 -42 -50 -92 -102 -198 -200 -250 -264 -240 -293 2 -6 -2 -12 -10
-12 -15 -1 -78 -55 -78 -69 0 -5 -7 -11 -15 -15 -8 -3 -15 -12 -15 -19 0 -8
-9 -22 -20 -32 -11 -10 -20 -23 -20 -28 0 -6 -11 -25 -25 -43 -14 -18 -25 -38
-25 -44 0 -6 -18 -29 -41 -51 -22 -21 -38 -43 -35 -48 3 -5 -4 -11 -17 -15
-19 -4 -87 -84 -87 -102 0 -4 -11 -15 -25 -26 -14 -11 -37 -42 -50 -69 -14
-27 -29 -49 -33 -49 -4 0 -15 -18 -25 -40 -9 -23 -28 -46 -42 -52 -14 -6 -28
-21 -31 -34 -3 -12 -19 -34 -35 -50 -16 -15 -33 -42 -39 -60 -6 -18 -26 -44
-44 -58 -23 -17 -35 -36 -39 -60 -6 -39 -63 -122 -89 -131 -10 -4 -18 -15 -18
-26 0 -10 -15 -36 -34 -56 -18 -21 -36 -50 -39 -64 -8 -33 -56 -119 -67 -119
-4 0 -10 -18 -14 -40 -3 -22 -11 -40 -16 -40 -6 0 -10 -8 -10 -19 0 -10 -7
-24 -16 -32 -8 -7 -24 -29 -34 -49 -10 -20 -25 -42 -33 -49 -8 -6 -13 -20 -10
-29 2 -10 -5 -26 -16 -36 -11 -10 -32 -55 -46 -100 -30 -91 -42 -120 -66 -156
-9 -14 -25 -49 -34 -77 -10 -30 -34 -70 -58 -96 -23 -25 -50 -55 -60 -68 -9
-13 -33 -44 -53 -68 -19 -24 -39 -52 -45 -62 -5 -11 -15 -19 -22 -19 -7 0 -35
-23 -62 -50 -28 -28 -68 -63 -90 -78 -46 -30 -104 -90 -142 -144 -14 -21 -34
-40 -44 -43 -10 -4 -28 -19 -39 -36 -12 -16 -30 -29 -40 -29 -10 0 -25 -11
-34 -25 -9 -14 -27 -27 -39 -30 -15 -4 -28 -19 -36 -41 -7 -20 -24 -40 -41
-49 -15 -8 -41 -27 -57 -42 -34 -34 -89 -73 -101 -73 -17 0 -62 -25 -62 -35 0
-6 -8 -18 -19 -27 -10 -8 -20 -20 -22 -25 -5 -12 -126 -83 -143 -83 -7 0 -21
-8 -32 -18 -24 -23 -133 -82 -151 -82 -7 0 -21 -9 -30 -20 -10 -11 -27 -20
-39 -20 -12 0 -24 -5 -26 -11 -2 -6 -42 -15 -91 -19 -75 -7 -91 -6 -124 11
-20 10 -43 19 -50 19 -16 0 -57 57 -72 99 -16 50 -13 117 8 159 10 20 16 43
13 51 -2 7 -1 16 4 20 13 9 34 48 34 63 1 24 57 127 89 164 18 20 37 47 42 61
11 30 38 67 100 136 25 29 65 79 89 112 24 33 69 85 99 115 31 30 67 70 80 89
13 18 41 41 62 50 38 17 70 49 82 84 3 9 14 17 23 17 10 0 24 7 33 15 36 33
89 73 141 106 30 18 64 40 75 47 46 29 87 42 132 42 42 0 49 -3 61 -27 6 -15
12 -33 12 -40 0 -7 13 -19 29 -27 16 -9 31 -22 35 -31 4 -12 17 -15 47 -13 43
3 43 4 89 97 16 33 18 46 9 57 -6 7 -8 26 -4 42 5 24 1 33 -19 50 -15 11 -26
27 -26 35 0 23 -58 67 -89 67 -15 0 -31 4 -36 9 -15 14 -163 -6 -212 -29 -24
-11 -49 -20 -57 -20 -7 0 -19 -7 -26 -15 -7 -8 -17 -15 -23 -15 -5 0 -24 -11
-41 -23 -17 -13 -49 -32 -70 -42 -21 -10 -41 -26 -43 -35 -3 -9 -20 -23 -39
-30 -19 -8 -34 -19 -34 -26 0 -14 -53 -57 -82 -67 -10 -3 -20 -17 -23 -30 -4
-14 -17 -30 -30 -37 -13 -7 -42 -32 -65 -56 -23 -24 -46 -44 -51 -44 -5 0 -9
-6 -9 -12 0 -7 -13 -21 -30 -30 -16 -9 -32 -28 -36 -42 -3 -14 -15 -28 -25
-31 -10 -4 -19 -12 -19 -18 0 -7 -9 -18 -19 -24 -11 -7 -27 -28 -37 -48 -9
-20 -25 -40 -35 -45 -10 -6 -27 -30 -38 -55 -14 -33 -26 -45 -41 -45 -12 0
-24 -9 -29 -23 -5 -13 -24 -39 -41 -58 -18 -19 -36 -46 -42 -61 -5 -15 -17
-30 -27 -33 -13 -4 -43 -59 -41 -73 1 -2 -10 -16 -24 -32 -13 -17 -28 -40 -31
-52 -4 -13 -19 -38 -32 -56 -16 -22 -23 -42 -20 -57 2 -14 1 -26 -2 -27 -3 -2
-22 -34 -40 -72 -31 -60 -35 -78 -34 -139 2 -108 21 -195 47 -209 27 -14 37
-29 31 -46 -3 -7 6 -17 19 -22 24 -9 40 -35 31 -50 -7 -11 22 -21 41 -13 10 4
17 -1 21 -15 5 -21 43 -37 76 -33 10 1 27 -5 37 -14 16 -14 24 -15 52 -6 19 6
76 13 127 15 51 2 98 9 104 15 6 6 19 11 29 11 10 0 48 14 85 30 36 17 74 30
85 30 10 0 29 11 41 24 12 13 40 29 61 37 21 8 44 22 50 32 6 9 21 17 34 17
12 0 25 6 28 14 3 8 21 22 40 31 19 9 34 20 34 25 0 6 5 10 10 10 6 0 19 9 30
20 11 11 27 20 35 20 8 0 15 7 15 15 0 8 4 15 8 15 5 0 36 27 71 59 34 33 71
63 81 66 11 3 33 24 50 46 18 21 43 42 56 45 37 9 84 55 84 81 0 18 6 23 25
23 17 0 33 12 54 43 44 63 88 107 106 107 18 0 54 38 55 56 0 7 12 15 27 19
32 8 43 21 43 52 0 13 8 24 20 28 11 4 32 17 47 31 37 35 45 30 42 -26 -2 -27
0 -53 4 -56 4 -4 7 -20 7 -35 0 -15 7 -35 16 -44 9 -8 17 -30 19 -48 8 -86 47
-207 67 -207 4 0 14 -13 22 -29 8 -15 40 -55 71 -87 30 -32 55 -67 55 -78 0
-15 5 -17 28 -13 20 4 33 1 44 -13 22 -25 140 -44 223 -35 36 4 68 11 71 16 3
5 18 9 34 9 16 0 32 5 35 10 3 6 14 10 25 10 10 0 21 7 24 16 16 43 84 -18 85
-77 1 -29 25 -55 56 -61 13 -2 26 -19 38 -53 18 -51 48 -75 93 -75 12 0 27 -7
34 -15 7 -8 18 -15 25 -15 7 0 17 -6 23 -13 6 -7 26 -14 44 -15 18 -2 35 -6
38 -11 8 -14 147 -24 154 -12 9 14 69 14 82 1 9 -9 37 -4 120 21 17 5 39 9 50
9 11 0 54 11 94 25 40 14 85 25 99 25 15 0 31 8 39 20 7 11 21 20 31 20 10 0
34 7 54 15 19 8 37 11 40 8 4 -3 9 2 13 11 4 9 17 16 34 16 15 0 38 10 52 23
22 20 74 46 217 108 31 14 69 41 91 66 22 26 46 43 59 43 27 0 89 40 96 62 3
9 18 19 32 23 15 3 42 20 60 36 19 16 42 29 52 29 11 0 21 9 25 24 3 13 18 29
34 35 16 7 39 25 50 40 34 47 92 46 92 -1 0 -12 8 -18 23 -18 12 0 34 -12 48
-27 13 -16 41 -41 62 -57 20 -15 37 -34 37 -41 0 -13 100 -45 142 -45 15 0 39
-11 55 -24 15 -13 45 -29 66 -35 20 -7 37 -16 37 -21 0 -4 19 -11 43 -15 23
-4 49 -13 57 -19 21 -17 98 -44 142 -49 20 -3 47 -12 59 -21 13 -9 44 -16 69
-16 25 0 54 -7 64 -15 12 -9 42 -15 78 -15 47 0 59 -4 68 -20 8 -16 21 -20 59
-20 35 0 53 -5 66 -20 11 -13 31 -20 52 -20 29 0 36 -5 48 -34 12 -27 22 -35
57 -44 49 -12 82 -43 92 -84 3 -16 10 -28 14 -28 15 0 0 -79 -19 -96 -10 -9
-19 -30 -19 -46 0 -27 -37 -78 -57 -78 -4 0 -24 -20 -43 -45 -19 -24 -40 -44
-47 -45 -6 0 -21 -12 -31 -27 -20 -27 -68 -56 -144 -87 -21 -8 -38 -20 -38
-26 0 -19 -208 -103 -337 -136 -51 -13 -103 -29 -115 -35 -29 -16 -228 -23
-228 -9 0 14 -137 6 -184 -11 -32 -11 -36 -17 -36 -47 0 -18 -7 -41 -16 -50
-15 -15 -15 -17 5 -33 11 -9 21 -21 21 -26 1 -15 71 -53 100 -53 16 0 32 -5
36 -11 4 -7 19 -8 43 -3 20 4 65 8 101 9 36 1 83 9 105 18 22 9 62 16 89 17
28 0 56 6 65 14 9 8 66 28 126 44 215 60 250 71 253 81 2 5 36 26 75 47 40 20
81 45 93 55 11 11 24 19 28 19 5 0 24 14 43 30 18 17 39 30 47 30 7 0 26 16
43 35 17 19 41 35 52 35 14 0 26 10 34 28 6 15 23 37 36 49 27 25 51 68 51 89
0 8 5 14 11 14 5 0 9 8 8 18 -2 19 8 50 25 71 5 7 11 20 12 28 2 8 10 23 20
34 15 17 16 26 4 96 -6 43 -14 100 -17 127 -3 26 -11 55 -19 65 -55 64 -93 98
-120 109 -17 7 -50 30 -73 51 -27 24 -57 41 -79 45 -21 3 -50 17 -66 31 -16
14 -34 25 -40 25 -6 0 -24 7 -41 16 -38 21 -179 61 -265 76 -36 6 -73 18 -83
27 -13 11 -37 15 -78 14 -40 -1 -70 5 -96 18 -20 10 -50 19 -65 19 -15 0 -28
4 -28 9 0 5 -16 15 -35 22 -19 7 -35 18 -35 24 0 7 -26 18 -57 26 -37 8 -70
25 -93 45 -19 17 -45 34 -57 38 -30 10 -113 93 -113 114 1 24 30 57 67 76 18
9 36 22 40 30 4 7 35 28 68 47 33 18 64 39 68 46 10 16 30 35 131 128 43 38
74 75 72 82 -3 7 -2 13 3 13 15 0 84 59 96 83 18 34 106 127 121 127 9 0 14
12 14 35 0 20 6 48 14 63 7 15 16 53 20 85 6 56 6 57 -18 57 -14 0 -37 5 -53
11 -36 15 -120 12 -152 -5 -14 -8 -44 -19 -66 -26 -73 -23 -160 -68 -202 -105
-53 -46 -109 -90 -150 -116 -18 -12 -33 -24 -33 -29 0 -4 -22 -32 -50 -61 -27
-30 -60 -66 -73 -81 -39 -43 -137 -195 -137 -211 0 -9 -4 -19 -10 -22 -5 -3
-10 -17 -10 -30 0 -12 -7 -25 -15 -29 -8 -3 -15 -15 -15 -27 0 -12 -13 -34
-29 -48 -15 -14 -30 -31 -32 -37 -5 -15 -126 -114 -139 -114 -5 0 -10 -7 -10
-15 0 -8 -16 -21 -35 -30 -19 -9 -39 -23 -46 -31 -6 -8 -22 -14 -35 -14 -13 0
-25 -8 -29 -19 -7 -22 -74 -71 -98 -71 -9 0 -17 -6 -17 -14 0 -13 -119 -96
-138 -96 -17 0 -109 -46 -144 -71 -41 -31 -181 -99 -203 -99 -8 0 -23 -4 -33
-10 -40 -22 -112 -50 -130 -50 -10 0 -27 -9 -36 -19 -15 -16 -30 -19 -81 -18
-39 1 -68 -3 -78 -11 -13 -11 -39 -11 -139 -2 l-123 11 -38 40 c-21 21 -41 39
-46 39 -4 0 -18 12 -32 26 -34 36 -35 131 -2 180 13 18 23 37 23 41 0 17 40
87 54 95 7 4 17 22 20 40 4 20 25 51 51 78 25 25 45 48 45 52 0 5 7 16 16 26
27 29 84 123 84 138 0 7 27 42 60 77 57 62 72 87 50 87 -5 0 -10 7 -10 15 0 8
3 15 8 15 16 0 42 66 38 97 -9 67 -18 73 -107 73 -76 0 -80 -1 -74 -20 4 -12
2 -20 -5 -20 -6 0 -20 -16 -31 -35 -15 -24 -28 -35 -45 -35 -17 0 -25 -7 -30
-25 -3 -14 -10 -25 -15 -25 -5 0 -9 -11 -9 -25 0 -14 -6 -25 -12 -25 -20 -1
-58 -36 -58 -54 0 -25 -23 -68 -57 -106 -18 -19 -33 -39 -33 -43 0 -4 -5 -13
-10 -20 -53 -64 -100 -125 -100 -131 0 -3 -12 -24 -26 -46 -19 -29 -37 -43
-65 -50 -29 -8 -40 -17 -45 -35 -4 -15 -16 -28 -30 -31 -13 -3 -24 -9 -24 -14
0 -19 -75 -81 -103 -86 -18 -3 -44 -10 -59 -16 -39 -14 -135 8 -163 38 -12 13
-27 24 -32 24 -19 0 -68 62 -65 81 2 12 -9 33 -27 51 -45 47 -61 105 -61 229
0 86 5 124 24 186 13 43 27 95 31 116 4 27 19 50 51 81 24 24 44 48 44 55 0 6
7 11 15 11 8 0 15 5 15 10 0 6 7 10 15 10 8 0 12 6 9 14 -3 8 12 26 40 47 25
18 46 39 46 46 0 8 4 19 10 26 5 7 21 27 36 45 14 17 29 32 33 32 8 0 156 145
195 191 49 60 127 139 136 139 5 0 30 23 57 51 26 29 69 74 96 102 26 28 47
53 47 57 0 11 39 50 93 94 26 21 47 45 47 52 0 8 16 24 35 36 19 13 35 28 35
33 0 6 14 19 30 28 23 14 30 25 30 48 0 16 3 29 8 29 4 0 30 20 57 45 28 25
56 45 63 45 6 0 12 7 12 16 0 17 23 44 38 44 5 0 14 11 20 24 6 14 22 32 35
40 35 24 147 134 147 146 0 6 7 13 15 17 9 3 23 19 31 35 8 16 59 73 112 127
128 129 182 187 182 198 0 4 12 17 27 28 15 11 33 27 39 35 7 8 42 46 78 84
36 38 66 75 66 82 0 6 35 47 78 91 42 45 99 104 125 134 27 29 63 60 80 70 26
13 32 23 30 45 -2 24 12 43 85 114 88 85 132 144 132 173 0 9 10 22 23 28 30
17 107 99 107 116 0 7 4 13 10 13 5 0 16 15 25 33 8 17 27 46 41 62 66 76 104
126 160 210 15 22 33 44 40 48 8 4 14 17 14 27 0 11 4 20 9 20 5 0 11 8 15 18
6 19 19 40 53 89 13 17 23 36 23 40 0 5 12 29 28 54 65 105 91 228 51 249 -10
6 -29 10 -43 10 -16 0 -26 6 -26 15 0 11 -11 15 -43 15 -24 0 -47 -3 -51 -7z
m-83 -305 c-12 -26 -36 -57 -53 -69 -19 -15 -32 -35 -36 -58 -9 -47 -42 -113
-54 -106 -11 7 -70 -49 -70 -67 0 -7 -25 -38 -56 -68 -30 -30 -58 -67 -61 -82
-3 -15 -24 -45 -47 -67 -75 -73 -87 -88 -100 -124 -16 -46 -59 -95 -91 -103
-14 -3 -25 -10 -25 -14 0 -4 -20 -32 -44 -61 -24 -30 -46 -66 -50 -82 -8 -34
-100 -128 -144 -148 -17 -7 -32 -17 -32 -22 0 -7 -30 -41 -137 -153 -29 -30
-53 -59 -53 -65 0 -10 -89 -99 -99 -99 -3 0 -14 -17 -24 -38 -27 -56 -255
-282 -285 -282 -6 0 -20 -21 -33 -47 -12 -25 -49 -73 -81 -105 -32 -32 -58
-62 -58 -68 0 -5 -15 -18 -34 -27 -36 -19 -96 -87 -96 -109 0 -7 -22 -28 -50
-46 -27 -18 -50 -38 -50 -45 0 -6 -11 -20 -25 -31 -14 -11 -25 -23 -25 -27 0
-11 -59 -66 -92 -88 -26 -16 -66 -77 -52 -77 4 0 -5 -9 -19 -20 -14 -11 -31
-20 -37 -20 -7 0 -45 -33 -85 -72 -56 -56 -74 -82 -79 -110 -4 -24 -13 -38
-21 -38 -8 0 -15 -4 -15 -10 0 -5 -7 -10 -15 -10 -8 0 -14 -6 -12 -12 1 -7
-13 -17 -30 -22 -18 -6 -35 -18 -38 -27 -3 -10 -19 -22 -36 -28 -16 -5 -32
-18 -36 -28 -9 -22 -69 -83 -83 -83 -5 0 -21 -18 -34 -39 -38 -60 -100 -121
-124 -121 l-20 0 19 43 c11 23 24 49 30 57 5 8 16 29 24 45 8 17 26 48 40 70
14 22 28 47 31 55 16 38 46 98 64 125 11 17 34 58 51 93 17 34 37 62 45 62 8
0 19 11 24 24 5 13 13 27 19 30 5 3 13 21 16 38 4 18 25 50 46 72 21 23 50 63
64 91 14 28 38 64 53 81 48 54 109 138 117 162 4 13 32 54 63 93 130 158 147
181 147 192 0 7 11 21 25 32 38 30 52 46 92 100 20 28 46 59 58 70 13 11 40
43 60 70 21 28 47 59 57 70 11 12 22 26 24 32 2 7 47 56 99 111 52 54 148 156
213 225 66 70 125 127 133 127 8 0 14 6 14 14 0 8 16 32 35 53 19 21 35 41 35
45 0 4 15 15 33 24 31 15 147 130 147 145 0 4 8 10 19 14 10 3 49 35 87 72 38
37 83 74 99 84 17 9 35 26 41 38 11 22 54 58 54 46 0 -9 59 38 148 118 43 39
86 69 105 73 18 3 48 22 67 41 19 19 47 41 63 49 15 8 27 18 27 23 0 5 16 12
36 15 19 4 48 15 63 24 16 9 39 17 52 17 l25 0 -23 -47z"/>
<path d="M26138 28619 c-20 -10 -42 -28 -48 -39 -7 -13 -21 -20 -40 -20 -20 0
-30 -5 -30 -15 0 -8 -4 -15 -9 -15 -6 0 -18 -14 -28 -30 -9 -17 -25 -33 -35
-36 -10 -3 -18 -13 -18 -23 0 -10 -7 -24 -15 -31 -8 -7 -15 -18 -15 -26 0 -7
-10 -19 -22 -25 -13 -7 -29 -20 -36 -31 -7 -10 -19 -18 -26 -18 -8 0 -26 -24
-41 -54 -15 -30 -52 -78 -81 -108 -30 -29 -54 -61 -54 -70 0 -23 -57 -78 -81
-78 -11 0 -18 -4 -15 -9 7 -11 -32 -91 -44 -91 -6 0 -10 -6 -10 -13 0 -8 -9
-24 -20 -37 -11 -13 -20 -27 -20 -31 0 -4 -8 -10 -18 -13 -19 -6 -42 -62 -47
-116 -2 -19 -5 -42 -7 -50 -2 -8 3 -41 11 -73 13 -51 17 -58 35 -53 13 3 33
-5 56 -22 32 -25 42 -27 118 -25 45 0 82 -3 82 -8 0 -5 -4 -9 -10 -9 -25 0
-90 -92 -90 -129 0 -12 -6 -21 -15 -21 -8 0 -21 -13 -30 -29 -8 -16 -34 -42
-57 -58 -27 -18 -50 -44 -62 -71 -15 -33 -24 -41 -38 -36 -14 4 -18 0 -18 -16
0 -23 -85 -110 -106 -110 -6 0 -47 -31 -90 -70 -43 -38 -97 -77 -121 -86 -24
-9 -43 -23 -43 -30 0 -25 -109 -67 -180 -70 -59 -2 -68 1 -98 27 -18 16 -37
29 -42 29 -6 0 -9 3 -9 8 4 21 -3 32 -20 32 -10 0 -24 6 -30 14 -15 18 -16
117 -2 145 7 12 11 27 10 34 -3 12 4 28 52 134 16 34 29 66 29 72 0 6 11 13
25 17 14 3 25 10 25 15 0 16 1 18 16 61 8 24 32 59 54 79 28 26 40 45 40 65 1
17 13 43 30 64 17 19 30 39 30 46 0 14 33 44 49 44 20 0 48 33 33 38 -19 6
-14 36 8 50 11 7 20 23 20 37 0 13 6 28 13 32 8 4 26 33 41 65 15 31 30 59 34
62 6 7 6 6 16 86 6 49 4 56 -14 68 -19 11 -24 11 -39 -7 -27 -31 -57 -27 -73
9 -12 27 -38 42 -38 22 0 -5 -18 -20 -39 -34 -37 -24 -39 -25 -55 -7 -9 11
-11 21 -6 24 13 8 13 45 -1 45 -6 0 -8 8 -4 19 4 14 -1 25 -19 36 -21 14 -55
17 -193 18 -165 1 -169 1 -228 -27 -80 -38 -175 -98 -175 -112 0 -6 -20 -25
-44 -42 -104 -75 -156 -128 -156 -159 0 -11 -15 -25 -38 -35 -20 -10 -45 -30
-55 -45 -32 -51 -86 -126 -94 -132 -5 -3 -14 -17 -21 -31 -21 -44 -40 -69 -94
-129 -16 -16 -28 -38 -28 -48 -1 -10 -19 -36 -40 -58 -22 -22 -40 -47 -40 -57
0 -10 -9 -27 -20 -38 -11 -11 -20 -29 -20 -39 0 -10 -7 -21 -15 -25 -8 -3 -15
-15 -15 -26 0 -11 -7 -23 -15 -26 -8 -4 -15 -14 -15 -24 0 -10 -7 -23 -15 -30
-8 -7 -15 -20 -15 -30 0 -10 -7 -23 -16 -31 -8 -7 -13 -21 -11 -31 3 -11 -4
-29 -18 -44 -25 -27 -37 -80 -25 -104 5 -9 4 -38 -1 -65 -6 -28 -8 -67 -4 -87
6 -43 42 -119 62 -131 7 -4 13 -12 13 -18 0 -5 16 -23 35 -40 19 -17 35 -40
35 -51 0 -11 5 -18 13 -15 6 2 27 -5 46 -15 18 -11 43 -18 55 -16 11 1 27 -1
33 -5 7 -4 21 -3 32 3 11 5 38 10 60 10 23 0 55 9 78 23 35 21 82 40 128 54
11 4 29 17 40 30 12 13 32 23 48 23 20 0 28 6 33 25 4 15 20 31 42 42 23 11
38 26 40 40 2 13 14 25 32 31 18 7 30 19 32 34 2 19 10 24 40 26 34 3 38 0 52
-32 8 -20 27 -41 41 -48 17 -7 28 -23 32 -41 4 -17 14 -32 25 -34 10 -3 18 -9
18 -13 0 -13 92 -67 145 -85 60 -20 121 -25 197 -18 48 5 63 11 92 39 22 21
45 34 61 34 53 0 116 23 152 56 20 19 43 34 50 34 7 0 28 14 46 30 19 17 39
30 45 30 5 0 12 7 16 15 3 8 11 15 18 15 7 1 29 20 48 43 19 23 52 58 73 79
20 20 37 42 37 48 0 5 9 10 20 10 12 0 24 9 29 23 5 12 20 28 33 36 14 7 33
31 42 53 10 21 24 42 32 45 8 3 14 10 14 17 0 6 18 30 39 53 22 23 42 51 46
62 3 10 12 22 21 25 9 4 13 14 9 28 -4 19 3 28 40 50 29 18 45 34 45 47 0 11
5 23 10 26 6 3 10 15 10 26 0 13 11 25 34 34 23 10 39 26 50 52 25 58 50 95
71 107 17 10 69 53 100 82 6 7 29 21 52 32 22 12 54 37 71 56 27 31 72 49 72
29 0 -11 -44 -73 -52 -73 -5 0 -8 -13 -8 -30 0 -20 -11 -39 -35 -63 -19 -19
-35 -42 -35 -51 0 -9 -9 -35 -20 -57 -13 -24 -18 -48 -15 -60 5 -15 2 -22 -12
-25 -19 -5 -63 -98 -63 -134 0 -10 -4 -21 -9 -25 -6 -3 -13 -26 -17 -50 -3
-25 -10 -43 -14 -40 -18 11 -42 -48 -38 -90 4 -32 1 -44 -12 -53 -20 -12 -35
-85 -31 -147 1 -22 -3 -54 -10 -70 -7 -17 -11 -39 -10 -50 1 -12 -10 -31 -24
-43 -19 -16 -24 -28 -19 -40 4 -9 9 -35 11 -57 8 -81 14 -105 28 -105 8 0 15
-8 15 -19 0 -21 35 -31 111 -31 43 0 50 3 63 29 9 16 18 46 22 68 5 34 3 40
-19 52 -21 11 -24 18 -18 40 5 14 9 49 10 78 1 28 8 71 17 95 9 28 13 57 8 82
-5 32 -3 42 14 55 13 10 27 40 35 76 8 33 21 76 27 95 7 19 15 40 17 45 2 6
12 24 22 40 11 17 20 39 20 50 1 12 5 25 10 30 13 13 101 191 101 204 0 6 27
39 60 73 33 35 60 70 60 79 0 8 13 25 29 37 16 12 32 35 36 52 4 16 10 30 15
30 4 0 15 17 23 39 9 21 27 47 40 57 23 19 36 39 74 115 21 41 69 92 97 102
10 4 16 13 12 22 -3 8 -1 17 4 20 5 3 21 29 36 58 25 50 25 54 14 124 -7 40
-19 78 -27 84 -8 8 -28 9 -56 4 -23 -4 -53 -8 -67 -9 -22 -1 -45 -16 -84 -52
-7 -7 -30 -21 -52 -32 -21 -11 -48 -30 -59 -42 -10 -12 -50 -42 -88 -67 -37
-25 -80 -60 -95 -79 -28 -36 -52 -44 -52 -19 0 8 -7 15 -15 15 -22 0 -18 20 9
49 25 28 46 80 46 116 0 13 6 28 14 34 8 7 14 35 15 72 1 34 5 69 10 78 5 9 5
25 0 36 -4 11 -8 34 -8 50 -1 41 -31 58 -106 60 -33 0 -71 4 -85 7 -15 4 -39
-1 -62 -13z m26 -286 c-4 -16 -11 -32 -15 -37 -5 -6 -9 -18 -9 -28 0 -10 -4
-18 -9 -18 -5 0 -11 -15 -15 -32 -3 -18 -12 -46 -20 -63 -8 -16 -19 -41 -25
-55 -6 -14 -20 -38 -31 -55 -11 -16 -23 -37 -26 -45 -3 -8 -13 -30 -21 -49 -9
-19 -19 -46 -22 -60 -5 -17 -17 -28 -39 -33 -25 -7 -32 -14 -32 -33 0 -16 -6
-25 -15 -25 -9 0 -18 -7 -21 -15 -4 -8 -19 -15 -34 -15 -16 0 -31 -4 -34 -9
-3 -5 -21 -12 -41 -15 -19 -4 -38 -14 -43 -22 -5 -10 -28 -18 -55 -21 -43 -5
-47 -4 -47 15 0 12 5 24 10 27 6 4 18 24 27 46 13 33 20 39 44 39 22 0 29 5
29 20 0 11 11 27 24 35 15 10 26 29 30 54 4 26 16 48 36 64 16 14 30 31 30 38
0 7 33 45 74 84 40 40 82 87 92 104 20 34 81 78 102 73 7 -2 12 7 12 22 0 22
10 30 43 35 4 0 4 -11 1 -26z m-1474 -358 c7 -8 21 -15 31 -15 10 0 20 -4 23
-9 6 -9 49 -5 81 9 11 5 31 11 44 14 18 4 21 2 12 -7 -6 -6 -11 -24 -11 -39 0
-17 -5 -28 -14 -28 -15 0 -55 -50 -74 -92 -6 -16 -18 -28 -26 -28 -9 0 -20
-16 -26 -39 -5 -21 -16 -41 -24 -44 -8 -3 -20 -23 -27 -44 -6 -20 -18 -44 -26
-51 -7 -7 -13 -20 -13 -28 0 -19 -50 -94 -62 -94 -6 0 -7 -7 -4 -15 7 -19 -70
-135 -89 -135 -9 0 -16 -17 -20 -47 -10 -71 -14 -80 -35 -86 -13 -3 -20 -14
-20 -30 0 -26 -18 -50 -51 -67 -10 -6 -19 -16 -19 -23 -1 -16 -36 -57 -49 -57
-6 0 -11 -8 -11 -18 0 -10 -12 -31 -27 -45 -16 -15 -35 -34 -43 -42 -39 -40
-75 -65 -92 -65 -10 0 -21 -7 -24 -15 -4 -9 -19 -15 -36 -15 -22 0 -29 -4 -27
-17 5 -28 -87 -113 -122 -113 -7 0 -17 -7 -24 -16 -10 -14 -48 -32 -108 -51
-12 -4 -18 -1 -17 8 4 29 -1 37 -30 49 -17 7 -30 20 -30 30 0 10 -7 23 -16 30
-39 33 -39 49 -2 195 10 43 61 150 83 175 7 8 16 26 20 40 4 14 16 31 26 38
11 7 19 24 19 36 0 13 6 26 14 29 8 3 17 19 21 36 4 17 11 29 15 26 5 -3 18
14 28 37 11 24 31 54 46 67 14 14 26 30 26 37 0 6 7 14 15 18 8 3 15 12 15 21
0 9 11 28 25 43 14 15 31 39 38 55 6 15 20 30 29 33 9 3 20 14 23 25 4 10 14
19 23 19 9 0 27 18 40 40 12 22 27 40 33 40 6 0 27 15 47 34 102 96 129 117
152 122 14 2 43 14 65 24 22 11 56 20 75 20 19 0 51 8 70 19 45 24 45 24 60 6z"/>
<path d="M19448 28623 c-1 -5 -27 -23 -56 -40 -44 -28 -57 -31 -74 -22 -17 9
-23 8 -30 -5 -5 -9 -18 -16 -29 -16 -11 0 -40 -13 -64 -30 -24 -16 -48 -30
-54 -30 -6 0 -13 -12 -17 -27 -12 -57 -16 -64 -40 -75 -23 -11 -34 -38 -14
-38 21 0 -3 -28 -28 -33 -18 -4 -34 -18 -47 -42 -10 -20 -29 -44 -40 -53 -12
-10 -20 -23 -17 -30 2 -8 -5 -22 -17 -33 -12 -11 -21 -26 -21 -34 0 -8 -7 -18
-15 -22 -9 -5 -23 -36 -32 -68 -9 -33 -25 -68 -35 -78 -10 -10 -18 -29 -18
-42 0 -14 -9 -34 -21 -46 -12 -12 -23 -37 -24 -56 -2 -20 -13 -44 -24 -55 -12
-10 -21 -30 -21 -43 0 -13 -12 -36 -26 -50 -14 -14 -24 -33 -23 -43 2 -9 -5
-34 -14 -56 -9 -21 -15 -48 -12 -60 4 -14 -3 -31 -20 -50 -31 -36 -31 -42 -2
-50 l22 -6 -22 -15 c-24 -17 -30 -41 -13 -47 6 -2 4 -15 -5 -32 -8 -15 -15
-39 -15 -51 0 -16 -11 -30 -35 -44 -19 -11 -35 -28 -35 -37 0 -27 -31 -84 -46
-84 -8 0 -14 -7 -14 -15 0 -8 -20 -37 -44 -64 -24 -27 -47 -59 -51 -69 -3 -11
-17 -27 -30 -36 -15 -10 -25 -26 -25 -41 0 -13 -4 -27 -10 -30 -5 -3 -10 -15
-10 -26 0 -10 -3 -18 -7 -18 -23 4 -33 -4 -33 -25 0 -16 -12 -31 -37 -49 -57
-38 -112 -96 -129 -135 -17 -42 -52 -78 -79 -83 -12 -3 -23 -17 -29 -39 -5
-19 -24 -55 -43 -80 -18 -24 -36 -54 -39 -66 -3 -12 -15 -24 -26 -27 -11 -3
-19 -13 -18 -24 4 -38 1 -42 -32 -37 -27 5 -38 1 -57 -20 -14 -14 -34 -26 -46
-26 -14 0 -26 -10 -34 -26 -10 -22 -8 -33 10 -71 l22 -45 46 7 c25 4 51 11 57
16 6 5 15 4 20 -1 7 -7 20 3 39 28 16 22 41 44 55 50 15 7 37 30 49 53 13 22
34 44 47 49 13 5 24 15 24 22 0 7 29 42 65 77 36 35 65 69 65 75 0 7 13 27 30
46 16 19 29 40 30 46 0 5 24 35 53 65 71 75 97 108 97 123 0 6 12 23 28 37 15
15 43 48 62 73 50 68 63 82 82 89 11 4 15 12 12 22 -7 18 41 85 62 85 7 0 14
-5 14 -10 0 -12 49 -60 60 -60 4 0 10 -14 14 -31 6 -33 46 -75 92 -98 16 -8
44 -26 62 -39 23 -17 41 -22 58 -18 17 5 24 2 24 -8 0 -18 79 -30 111 -17 13
5 58 19 99 31 41 11 93 30 115 40 22 11 50 20 61 20 12 0 24 6 27 14 6 15 85
71 115 80 11 4 25 20 32 36 7 17 18 30 26 30 7 0 21 13 30 29 10 16 25 32 35
34 9 3 19 15 21 28 2 14 14 29 31 37 15 7 27 21 27 31 0 29 19 40 52 30 16 -4
35 -13 42 -18 9 -7 23 -7 44 1 35 13 40 29 18 47 -33 27 28 120 80 121 11 0
47 14 79 32 36 19 71 31 92 30 21 -1 36 4 39 13 3 8 21 17 39 21 43 8 98 41
89 55 -3 6 1 10 12 9 32 -3 62 11 67 31 3 11 14 19 26 19 12 0 32 9 44 20 12
11 28 18 35 15 8 -3 26 7 40 23 15 15 45 33 67 40 31 9 43 19 52 42 7 19 18
30 31 30 11 0 22 7 26 15 3 8 15 15 27 15 17 0 20 -4 15 -22 -4 -13 -10 -42
-13 -66 -3 -23 -10 -45 -14 -48 -5 -3 -9 -16 -9 -29 0 -13 -4 -27 -10 -30 -5
-3 -10 -14 -10 -24 0 -10 -9 -30 -20 -44 -12 -14 -20 -40 -20 -61 0 -26 -6
-40 -24 -51 -17 -11 -27 -33 -37 -76 -8 -34 -24 -72 -36 -86 -13 -13 -23 -32
-23 -42 0 -10 -7 -24 -15 -31 -8 -7 -15 -21 -15 -32 0 -11 -9 -31 -20 -45 -11
-14 -20 -34 -20 -44 0 -11 -4 -27 -10 -37 -5 -9 -14 -36 -20 -59 -6 -24 -17
-43 -24 -43 -18 0 -28 -27 -20 -52 7 -24 -12 -75 -40 -106 -28 -32 -38 -162
-11 -162 12 0 16 -7 13 -27 -2 -23 -9 -29 -34 -31 -26 -3 -33 -8 -38 -32 -3
-17 -3 -36 0 -43 3 -8 -2 -20 -11 -27 -8 -7 -15 -25 -15 -39 0 -34 34 -106 58
-123 11 -7 24 -23 31 -35 6 -13 19 -23 27 -23 9 0 32 -8 51 -17 34 -16 36 -16
48 1 7 9 19 15 26 14 7 -2 18 7 24 20 5 12 19 25 30 28 11 4 53 38 93 75 39
38 76 69 81 69 5 0 17 18 27 40 10 22 23 40 28 40 14 1 66 108 67 135 0 11 31
53 69 94 39 40 70 80 70 87 0 8 16 31 35 53 19 21 35 47 35 58 0 33 41 88 157
209 26 27 40 50 37 61 -3 12 21 45 76 103 44 47 80 91 80 97 0 7 14 19 30 28
17 9 30 22 30 30 0 23 286 305 309 305 34 0 44 -34 36 -124 -4 -44 -11 -89
-17 -99 -5 -9 -12 -47 -15 -85 -3 -37 -9 -69 -12 -72 -3 -3 -12 -23 -20 -45
-8 -22 -22 -46 -32 -53 -11 -8 -19 -25 -19 -42 0 -16 -4 -32 -10 -35 -5 -3
-10 -19 -10 -35 0 -26 -34 -113 -57 -142 -5 -7 -16 -33 -23 -58 -8 -25 -27
-71 -42 -103 -16 -31 -28 -69 -28 -83 0 -13 -4 -30 -10 -37 -49 -60 -88 -123
-81 -130 5 -5 7 -23 4 -41 -3 -21 1 -37 14 -51 10 -11 23 -32 30 -47 10 -21
21 -28 58 -34 68 -10 138 0 150 22 5 10 23 30 39 44 65 56 116 113 116 129 0
9 9 22 21 29 15 10 20 21 16 38 -3 16 0 24 9 24 7 0 19 10 25 23 7 12 25 38
41 57 15 19 28 40 28 47 0 7 4 13 8 13 15 0 53 41 47 51 -4 5 1 9 10 9 8 0 21
11 27 25 6 14 22 32 35 40 16 11 22 22 18 34 -5 18 20 37 60 43 13 2 21 12 23
31 2 16 15 36 33 49 16 12 29 31 29 43 0 38 90 145 121 145 12 0 19 9 21 27 2
19 16 35 50 57 26 17 47 37 47 44 1 6 7 12 14 12 13 0 77 71 77 87 1 21 89
101 118 108 18 4 32 13 32 21 0 8 7 17 16 21 8 3 20 16 25 29 5 14 17 24 28
24 20 0 56 32 106 93 17 20 45 42 63 49 17 7 32 17 32 23 0 7 11 17 25 23 14
7 28 19 31 27 4 8 11 15 16 15 16 0 2 -82 -16 -92 -9 -5 -16 -22 -16 -38 0
-17 -10 -40 -24 -55 -14 -15 -27 -44 -30 -69 -4 -25 -14 -50 -21 -56 -8 -7
-15 -23 -15 -35 0 -14 -7 -25 -18 -27 -21 -6 -62 -78 -62 -108 0 -11 -4 -20
-9 -20 -5 0 -13 -10 -17 -22 -3 -12 -26 -40 -50 -63 -28 -26 -49 -57 -59 -90
-10 -27 -23 -57 -31 -66 -21 -23 -17 -47 9 -52 15 -3 11 -5 -13 -6 -32 -1 -37
-5 -59 -56 -13 -31 -39 -72 -57 -92 -19 -20 -34 -44 -34 -53 0 -14 -52 -123
-97 -203 -7 -12 -13 -39 -13 -59 0 -20 -6 -41 -13 -45 -12 -8 -26 -50 -49
-142 -8 -33 -7 -50 1 -63 6 -10 11 -28 11 -40 0 -26 82 -108 109 -108 10 0 24
-6 31 -14 13 -17 105 -20 134 -4 10 5 33 10 52 10 32 0 59 28 35 36 -17 6 -13
50 6 61 24 13 2 38 -49 53 -22 6 -47 22 -55 35 -8 13 -21 23 -28 23 -13 0 -22
38 -27 113 -2 24 1 37 9 37 16 0 30 26 39 75 4 22 17 53 30 68 13 16 24 34 24
40 0 7 9 18 20 25 11 7 20 21 20 32 0 26 36 96 75 145 17 22 40 59 50 83 10
23 22 42 27 42 4 0 19 23 33 50 14 28 34 56 45 62 11 7 20 18 20 24 0 17 31
83 63 131 15 24 27 48 27 54 0 15 26 39 43 39 12 0 40 65 42 95 0 6 9 15 20
20 11 6 24 20 30 33 5 12 14 22 20 22 5 0 11 16 13 35 1 20 16 61 32 92 17 31
30 61 30 68 0 7 8 15 18 17 18 5 21 14 52 138 5 19 16 60 25 91 17 61 12 134
-11 143 -8 3 -14 14 -14 25 0 32 -30 42 -78 26 -23 -8 -61 -18 -84 -21 -24 -4
-52 -14 -63 -24 -11 -10 -38 -29 -60 -43 -22 -13 -57 -41 -77 -61 -22 -21 -47
-36 -61 -36 -14 0 -28 -9 -36 -22 -7 -13 -39 -43 -72 -68 -33 -25 -81 -69
-107 -98 -39 -45 -51 -53 -74 -50 -17 3 -29 -1 -33 -9 -2 -8 -9 -11 -15 -8 -5
3 -11 0 -11 -7 -1 -7 -2 -17 -4 -23 -1 -5 -3 -16 -3 -23 -1 -7 -13 -17 -26
-22 -13 -5 -30 -22 -38 -37 -8 -16 -23 -29 -36 -31 -14 -2 -27 -14 -33 -29 -5
-14 -18 -27 -29 -30 -11 -3 -22 -13 -25 -22 -3 -9 -26 -32 -50 -51 -25 -20
-56 -58 -71 -87 -24 -48 -30 -53 -59 -53 -26 0 -35 -5 -41 -22 -5 -13 -7 -27
-6 -32 2 -4 -15 -28 -38 -52 -22 -24 -40 -48 -40 -54 0 -5 -9 -10 -20 -10 -21
0 -70 -67 -70 -95 0 -8 -11 -17 -25 -21 -14 -3 -25 -11 -25 -16 0 -6 -15 -29
-32 -51 -18 -23 -38 -50 -43 -61 -6 -12 -19 -22 -29 -24 -16 -3 -18 1 -13 30
7 44 35 119 53 139 8 8 14 26 14 38 0 15 7 25 21 28 19 5 21 11 16 54 -4 34
-2 49 7 52 9 4 14 23 14 57 0 31 5 56 12 60 7 4 9 16 5 29 -3 11 -2 21 3 21 5
0 12 31 15 69 3 39 11 79 16 90 8 14 8 27 0 44 -8 17 -8 31 -1 43 6 11 6 28 0
48 -5 17 -9 55 -9 84 1 39 -2 52 -13 52 -8 0 -18 9 -21 20 -5 17 -12 20 -40
14 -30 -5 -34 -3 -37 18 -2 18 -8 22 -28 20 -14 -2 -33 -11 -42 -19 -9 -8 -40
-16 -68 -18 -44 -2 -57 -8 -88 -38 -21 -20 -51 -39 -68 -43 -25 -5 -41 -21
-83 -85 -28 -43 -55 -79 -60 -79 -11 0 -48 -30 -109 -87 -25 -24 -49 -43 -54
-43 -4 0 -8 -6 -8 -13 0 -7 -10 -17 -22 -22 -19 -8 -22 -17 -20 -47 3 -33 0
-39 -22 -48 -15 -5 -36 -26 -47 -45 -12 -19 -29 -35 -39 -35 -11 0 -20 -10
-24 -25 -4 -14 -13 -25 -22 -25 -8 0 -17 -8 -21 -17 -4 -10 -19 -33 -35 -51
-15 -18 -28 -40 -28 -49 0 -9 -13 -29 -30 -45 -16 -15 -30 -32 -30 -36 0 -5
-14 -22 -30 -38 -17 -16 -51 -64 -76 -106 -26 -43 -50 -78 -55 -78 -4 0 -11
-15 -14 -32 -8 -34 -51 -87 -71 -88 -12 0 -29 -49 -20 -58 3 -3 -10 -26 -29
-52 -19 -26 -35 -52 -35 -57 0 -13 -44 -53 -58 -53 -7 0 -12 -9 -12 -20 0 -20
-68 -95 -78 -86 -9 10 20 146 35 157 7 6 13 19 13 28 0 10 8 35 19 57 10 21
22 60 25 86 4 25 13 48 19 51 7 3 19 29 26 58 8 29 29 74 47 100 18 25 32 53
31 60 -1 19 23 79 32 79 4 0 14 19 22 43 7 23 30 63 49 89 20 26 41 68 48 94
7 25 24 62 37 82 14 20 25 46 25 58 0 12 7 24 15 28 8 3 15 16 15 30 0 14 4
27 8 30 5 3 15 31 22 63 7 32 16 63 20 68 29 42 45 245 21 253 -7 2 -20 21
-31 43 -18 35 -22 38 -40 26 -17 -10 -26 -9 -49 4 -27 16 -30 16 -57 -7 -18
-14 -42 -23 -65 -24 -28 0 -38 -5 -46 -23 -8 -16 -26 -28 -57 -37 -25 -7 -51
-19 -57 -26 -6 -8 -17 -14 -25 -14 -7 0 -18 -9 -24 -20 -6 -11 -17 -20 -25
-20 -8 0 -19 -8 -24 -19 -6 -10 -22 -22 -35 -25 -14 -3 -30 -15 -36 -26 -6
-11 -20 -20 -30 -20 -11 0 -20 -6 -20 -14 0 -17 -33 -30 -58 -22 -12 4 -20 -1
-27 -17 -6 -12 -19 -23 -30 -25 -30 -6 -89 -34 -97 -47 -4 -6 -32 -20 -62 -30
-31 -11 -56 -23 -56 -27 0 -4 -8 -8 -19 -8 -18 0 -18 2 -4 41 7 23 20 51 28
63 8 11 15 32 15 46 0 14 5 31 11 37 21 21 49 142 64 283 3 30 13 80 21 110
18 65 8 105 -31 120 -16 6 -23 14 -19 25 5 12 -2 15 -34 15 -23 0 -52 4 -65 9
-30 12 -97 -2 -113 -23 -6 -9 -19 -16 -29 -16 -36 0 -85 -32 -85 -55 0 -13
-18 -41 -42 -66 -24 -24 -44 -55 -45 -68 -1 -13 -18 -38 -37 -55 -20 -17 -36
-37 -36 -44 0 -7 -12 -22 -26 -35 -14 -12 -35 -41 -46 -64 -11 -24 -27 -43
-34 -43 -8 0 -19 -12 -24 -27 -6 -16 -15 -38 -21 -50 -6 -11 -9 -26 -5 -31 3
-5 -10 -27 -29 -48 -26 -28 -36 -50 -41 -87 -4 -26 -12 -54 -19 -61 -12 -12
-11 -26 10 -138 5 -24 17 -43 33 -54 14 -9 36 -29 49 -44 13 -15 34 -31 48
-34 18 -5 25 -13 25 -31 0 -13 -5 -27 -10 -30 -6 -4 -19 -24 -30 -46 -11 -21
-27 -39 -35 -39 -8 0 -21 -13 -29 -29 -9 -16 -26 -31 -38 -34 -13 -4 -27 -16
-33 -29 -13 -29 -101 -77 -143 -78 -18 0 -45 -9 -60 -19 -23 -17 -35 -18 -81
-11 -30 5 -65 7 -78 4 -28 -7 -112 43 -113 67 0 9 -9 19 -19 22 -12 3 -22 18
-26 38 -4 19 -10 39 -14 44 -16 26 -30 80 -21 83 6 2 10 12 10 22 0 33 29 87
57 105 38 25 52 45 53 77 0 25 48 78 71 78 5 0 9 11 9 23 0 13 15 39 33 58 17
19 38 46 45 60 8 14 29 43 48 64 19 21 34 46 34 56 0 9 14 29 30 42 20 18 30
35 30 54 0 17 13 44 32 67 32 39 118 164 118 172 0 2 9 13 20 24 11 11 20 30
20 43 0 12 13 38 28 57 16 19 32 47 35 61 4 14 17 37 30 50 31 31 38 64 27
114 -5 21 -5 44 -1 50 5 5 11 36 15 68 6 53 5 57 -14 57 -11 0 -20 5 -20 10 0
12 -57 14 -62 3z m-288 -518 c0 -3 -8 -23 -19 -43 -47 -93 -75 -139 -116 -186
-25 -28 -45 -59 -45 -69 0 -17 -26 -35 -36 -25 -2 3 1 29 8 58 9 41 19 57 40
69 17 9 32 29 37 48 10 35 39 78 85 124 26 27 46 37 46 24z m780 -49 c0 -18
-6 -46 -14 -61 -8 -15 -17 -58 -21 -96 -4 -39 -13 -73 -21 -80 -8 -6 -14 -17
-14 -24 0 -7 -9 -23 -19 -37 -11 -13 -25 -53 -32 -87 -11 -49 -20 -68 -41 -84
-20 -15 -26 -26 -22 -42 4 -16 -1 -24 -20 -33 -14 -6 -26 -17 -26 -23 0 -8
-15 -10 -52 -5 -84 11 -91 18 -86 87 3 42 10 65 25 81 25 27 78 131 88 171 5
20 13 27 31 27 19 0 28 9 40 38 45 105 59 126 92 134 17 5 32 15 32 22 0 13
36 44 53 45 4 1 7 -14 7 -33z"/>
</g>
</svg>
